<svg width="66" height="25" viewBox="0 0 66 25" fill="none" xmlns="http://www.w3.org/2000/svg">
<path d="M26.0491 17.6142C25.4374 17.6142 24.8256 17.2654 24.5681 16.663L18.2253 3.12507C17.8389 2.30075 18.1931 1.3496 19.0302 0.969145C19.8351 0.588687 20.801 0.93744 21.1874 1.76177L27.5302 15.3314C27.9165 16.1558 27.5624 17.1069 26.7253 17.4874C26.5321 17.5508 26.2745 17.6142 26.0491 17.6142Z" fill="#404040"/>
<path d="M34.4543 17.6142C33.8426 17.6142 33.2308 17.2654 32.9732 16.663L26.5982 3.12507C26.2119 2.30075 26.566 1.3496 27.4032 0.969145C28.2403 0.588687 29.2062 0.93744 29.5926 1.76177L35.9354 15.3314C36.3217 16.1558 35.9676 17.1069 35.1304 17.4874C34.9051 17.5508 34.6797 17.6142 34.4543 17.6142Z" fill="#404040"/>
<path d="M40.8265 0.808594C40.2147 0.808594 39.603 1.15735 39.3454 1.75974L33.0026 15.3294C32.6162 16.1537 32.9704 17.1049 33.8075 17.4853C34.6446 17.8658 35.6106 17.517 35.9969 16.6927L42.3397 3.12305C42.7261 2.29872 42.3719 1.34758 41.5348 0.967118C41.3094 0.872003 41.0518 0.808594 40.8265 0.808594Z" fill="#404040"/>
<path d="M49.232 0.808594C48.6202 0.808594 48.0085 1.15735 47.7509 1.75974L41.4081 15.3294C41.0218 16.1537 41.3759 17.1049 42.213 17.4853C43.0502 17.8658 44.0161 17.517 44.4024 16.6927L50.7452 3.12305C51.1316 2.29872 50.7774 1.34758 49.9403 0.967118C49.6827 0.872003 49.4574 0.808594 49.232 0.808594Z" fill="#404040"/>
<path d="M57.6051 0.808594C56.9933 0.808594 56.3816 1.15735 56.124 1.75974L49.7812 15.3294C49.3949 16.1537 49.749 17.1049 50.5861 17.4853C51.4233 17.8658 52.3892 17.517 52.7755 16.6927L59.1183 3.12305C59.5047 2.29872 59.1505 1.34758 58.3134 0.967118C58.088 0.872003 57.8305 0.808594 57.6051 0.808594Z" fill="#404040"/>
<path d="M64.0125 17.6142C63.4007 17.6142 62.789 17.2654 62.5314 16.663L56.1564 3.12507C55.77 2.30075 56.1242 1.3496 56.9613 0.969145C57.7985 0.588687 58.7644 0.93744 59.1507 1.76177L65.4935 15.3314C65.8799 16.1558 65.5257 17.1069 64.6886 17.4874C64.4632 17.5508 64.2378 17.6142 64.0125 17.6142Z" fill="#404040"/>
<path d="M17.1641 11.2078C16.5846 9.14696 14.5562 7.59343 12.3668 7.59343H11.0145C10.2418 7.59343 9.27589 7.59343 8.34218 7.59343C6.66794 7.59343 5.63763 7.59343 5.21907 7.59343C4.34976 7.59343 3.54483 6.80081 3.51264 5.91307C3.48044 5.40579 3.67362 4.93022 4.02779 4.54976C4.38195 4.20101 4.86491 4.01078 5.38006 4.01078H10.0164C11.5297 4.01078 12.9463 4.01078 13.7191 4.01078C14.1376 4.01078 14.5562 3.85226 14.8782 3.53521C15.1679 3.21816 15.3611 2.8377 15.3611 2.39384C15.3611 1.5061 14.6206 0.808594 13.7513 0.808594H12.7532H7.92362C6.50695 0.808594 5.73422 0.808594 5.25127 0.808594C5.05809 0.808594 4.86491 0.808594 4.67173 0.872003C3.35165 1.06223 2.32135 1.60121 1.51642 2.52065C0.518318 3.66203 0.0997579 5.02534 0.325137 6.51546C0.486121 7.78366 1.09786 8.82992 2.09597 9.65424C2.96529 10.3835 3.96339 10.7639 5.09029 10.7956C5.38006 10.7956 5.70203 10.7956 5.9918 10.7956C6.18498 10.7956 6.37816 10.7956 6.57135 10.7956C6.76453 10.7956 7.31188 10.7956 8.02021 10.7956C8.66415 10.7956 9.43688 10.7956 10.1452 10.7956C11.4653 10.7956 12.238 10.7956 12.4634 10.8273C12.9785 10.859 13.4293 11.1444 13.7513 11.5565C14.0732 11.9687 14.1698 12.5077 14.0732 12.9832C13.8801 13.8393 13.1717 14.3783 12.2702 14.3783C11.6907 14.3783 10.7569 14.3783 9.69445 14.3783H5.18688C4.12438 14.3783 3.19067 14.3783 2.61112 14.3783C2.09597 14.3783 1.61301 14.6002 1.29105 15.0124C0.969076 15.3928 0.872485 15.9001 1.00127 16.4074C1.19445 17.1049 1.83839 17.6122 2.61112 17.6122H8.59975C10.0486 17.6122 11.3365 17.6122 12.077 17.6122H12.1092C12.4634 17.6122 12.7532 17.5805 13.0107 17.5487C14.2664 17.3585 15.3289 16.8195 16.1338 15.8684C17.2929 14.5368 17.6471 12.9515 17.1641 11.2078Z" fill="#404040"/>
<path d="M32.0709 20.751C32.4573 20.751 32.8115 20.8144 33.069 20.9412C33.1656 20.9729 33.1978 21.0363 33.23 21.1314C33.2622 21.2265 33.23 21.29 33.1978 21.3851C33.1656 21.4802 33.1012 21.5119 33.0368 21.5436C32.9725 21.5753 32.8759 21.5436 32.8115 21.5119C32.6827 21.4485 32.5861 21.4168 32.4573 21.4168C32.3607 21.3851 32.2319 21.3851 32.0709 21.3851C31.9421 21.3851 31.8456 21.3851 31.749 21.4168C31.6524 21.4485 31.588 21.4802 31.5236 21.5119C31.4592 21.5436 31.427 21.607 31.3948 21.6704C31.3626 21.7338 31.3626 21.7972 31.3626 21.8289V21.8606C31.3626 21.9241 31.3626 21.9875 31.3948 22.0509C31.427 22.1143 31.4592 22.146 31.5236 22.1777C31.588 22.2094 31.6846 22.2728 31.7812 22.3045C31.8778 22.3362 32.0387 22.3679 32.1997 22.3996C32.6505 22.4947 33.0046 22.6216 33.1978 22.8118C33.391 23.002 33.4876 23.224 33.4876 23.541V23.6044C33.4876 23.9849 33.3588 24.2702 33.1012 24.4604C32.8437 24.6507 32.4895 24.7458 32.0065 24.7458C31.7812 24.7458 31.5558 24.7141 31.3304 24.6507C31.105 24.5873 30.944 24.5239 30.7831 24.4287C30.6865 24.3653 30.6543 24.3019 30.6221 24.2068C30.6221 24.1117 30.6221 24.0483 30.6865 23.9532C30.7509 23.858 30.8153 23.8263 30.8796 23.7946C30.944 23.7629 31.0406 23.7946 31.105 23.8263C31.2338 23.8898 31.3626 23.9532 31.5236 23.9849C31.6846 24.0166 31.8456 24.0483 32.0065 24.0483C32.2641 24.0483 32.4573 24.0166 32.5539 23.9215C32.6827 23.8263 32.7149 23.7312 32.7149 23.5727V23.6361C32.7149 23.4776 32.6505 23.3508 32.5217 23.2874C32.3929 23.1922 32.1997 23.1288 31.9421 23.0654C31.7168 23.0337 31.4914 22.9703 31.3304 22.9069C31.1694 22.8435 31.0084 22.7801 30.9118 22.685C30.7831 22.5899 30.7187 22.4947 30.6543 22.3679C30.5899 22.2411 30.5577 22.0826 30.5577 21.8924V21.8606C30.5577 21.7021 30.5899 21.5753 30.6543 21.4168C30.7187 21.29 30.8153 21.1631 30.944 21.068C31.0728 20.9729 31.2016 20.8778 31.3948 20.8144C31.6524 20.7827 31.8456 20.751 32.0709 20.751Z" fill="#404040"/>
<path d="M36.6433 20.7503C36.7398 20.7503 36.8042 20.782 36.9008 20.8137C36.9974 20.8772 37.0296 20.9406 37.0618 21.0674L37.8023 23.6355L38.5107 20.9723C38.5429 20.8772 38.5751 20.8138 38.6717 20.782C38.7361 20.7503 38.8327 20.7503 38.9292 20.7503C39.0258 20.782 39.0902 20.8138 39.1546 20.8772C39.1868 20.9406 39.219 21.0357 39.1868 21.1308L38.2531 24.3647C38.2209 24.4915 38.1565 24.5866 38.0921 24.6183C37.9955 24.6817 37.9311 24.6817 37.8345 24.6817C37.738 24.6817 37.6736 24.65 37.577 24.6183C37.4804 24.5549 37.4482 24.4915 37.416 24.3647L36.6755 21.6698L35.9027 24.3647C35.8705 24.4915 35.8061 24.5866 35.7417 24.6183C35.6452 24.6817 35.5808 24.6817 35.4842 24.6817C35.3876 24.6817 35.3232 24.65 35.2266 24.6183C35.13 24.5549 35.0978 24.4915 35.0656 24.3647L34.1641 21.1625C34.1319 21.0674 34.1319 20.9723 34.1963 20.9089C34.2285 20.8455 34.3251 20.782 34.4217 20.7503C34.5183 20.7186 34.6149 20.7186 34.6792 20.7503C34.7758 20.782 34.808 20.8455 34.8402 20.9723L35.5164 23.6672L36.2569 21.0674C36.2891 20.9406 36.3535 20.8772 36.4179 20.8137C36.4501 20.782 36.5467 20.7503 36.6433 20.7503Z" fill="#404040"/>
<path d="M41.2467 20.7827C41.3433 20.7827 41.4076 20.7827 41.472 20.8144C41.5364 20.8144 41.5686 20.8461 41.633 20.8778C41.6652 20.9095 41.7296 20.9729 41.7618 21.0363C41.794 21.0997 41.8584 21.1948 41.8906 21.3217L42.6633 23.1922L43.4039 21.3217C43.4361 21.1948 43.5004 21.0997 43.5326 21.0363C43.5648 20.9729 43.6292 20.9095 43.6614 20.8778C43.7258 20.8461 43.758 20.8144 43.8224 20.7827C43.8868 20.7827 43.9512 20.751 44.0478 20.751H44.1766C44.3698 20.751 44.4664 20.7827 44.5629 20.8461C44.6595 20.9095 44.6595 21.0363 44.6595 21.1948V24.397C44.6595 24.4921 44.6273 24.5556 44.5629 24.619C44.4986 24.6507 44.402 24.6824 44.3376 24.6824C44.241 24.6824 44.1766 24.6507 44.1122 24.619C44.0478 24.5873 44.0156 24.4921 44.0156 24.397V21.4168C43.9834 21.5436 43.9512 21.6704 43.919 21.7655C43.8868 21.8606 43.8546 21.9241 43.8224 22.0192L43.0819 23.7946C43.0497 23.9215 42.9853 23.9849 42.9209 24.0166C42.8565 24.0483 42.7921 24.08 42.6955 24.08C42.5667 24.08 42.5023 24.0483 42.4379 24.0166C42.3736 23.9849 42.3414 23.8898 42.277 23.7629L41.5686 21.9875C41.5364 21.9241 41.5042 21.8289 41.472 21.7338C41.4398 21.6387 41.4076 21.5119 41.3754 21.3851V24.4287C41.3754 24.5239 41.3432 24.5873 41.2789 24.6507C41.2145 24.6824 41.1179 24.7141 41.0535 24.7141C40.9569 24.7141 40.8925 24.6824 40.8281 24.6507C40.7637 24.619 40.7315 24.5239 40.7315 24.4287V21.2583C40.7315 21.0997 40.7637 20.9729 40.8281 20.9095C40.8925 20.8461 41.0213 20.8144 41.2145 20.8144H41.2467V20.7827Z" fill="#404040"/>
<path d="M47.1068 20.751C47.6541 20.751 48.0405 20.9095 48.298 21.2265C48.5556 21.5436 48.6844 22.0192 48.6844 22.6216V22.9386C48.6844 23.541 48.5556 24.0166 48.298 24.3336C48.0405 24.6507 47.6219 24.8092 47.1068 24.8092C46.5594 24.8092 46.1731 24.6507 45.9155 24.3336C45.6579 24.0166 45.5291 23.541 45.5291 22.9386V22.6216C45.5291 22.0192 45.6579 21.5436 45.9155 21.2265C46.1731 20.9095 46.5916 20.751 47.1068 20.751ZM47.1068 21.0997C46.6882 21.0997 46.3984 21.2265 46.2052 21.4802C46.0121 21.7338 45.9155 22.1143 45.9155 22.6533V22.8752C45.9155 23.4142 46.0121 23.7946 46.2052 24.0483C46.3984 24.3019 46.6882 24.4287 47.1068 24.4287C47.5253 24.4287 47.8151 24.3019 48.0083 24.0483C48.2015 23.7946 48.298 23.4142 48.298 22.8752V22.6533C48.298 22.1143 48.2015 21.7338 48.0083 21.4802C47.8473 21.2265 47.5253 21.0997 47.1068 21.0997Z" fill="#404040"/>
<path d="M51.0357 20.8135C51.4543 20.8135 51.7762 20.8769 51.9694 21.0354C52.1626 21.1939 52.2592 21.4476 52.2592 21.7646V21.8597C52.2592 21.9549 52.2592 22.0183 52.227 22.1134C52.1948 22.2085 52.1626 22.2719 52.1304 22.3353C52.066 22.3987 52.0016 22.4621 51.9372 22.5255C51.8406 22.5889 51.744 22.6207 51.6475 22.6524C51.905 22.6841 52.0982 22.7792 52.2592 22.906C52.4202 23.0645 52.4846 23.2547 52.4846 23.5401V23.6352C52.4846 23.9523 52.388 24.2059 52.1948 24.3961C52.0016 24.5864 51.6796 24.6815 51.2611 24.6815H50.102C49.9732 24.6815 49.8766 24.6498 49.8122 24.6181C49.7478 24.5546 49.7156 24.4595 49.7156 24.3327V21.1622C49.7156 21.0354 49.7478 20.9403 49.8122 20.8769C49.8766 20.8135 49.9732 20.8135 50.102 20.8135H51.0357ZM50.9713 22.4938C51.2611 22.4938 51.4865 22.4304 51.6475 22.3353C51.8084 22.2402 51.8728 22.0817 51.8728 21.828V21.7646C51.8728 21.5427 51.8084 21.3842 51.6475 21.289C51.5187 21.1939 51.2611 21.1305 50.9391 21.1305H50.0698V22.4621H50.9713V22.4938ZM51.1001 24.3644C51.4221 24.3644 51.6475 24.301 51.8084 24.2059C51.9694 24.1108 52.0338 23.9206 52.0338 23.6352V23.5401C52.0338 23.4133 52.0016 23.3182 51.9694 23.223C51.9372 23.1279 51.8728 23.0645 51.7762 23.0011C51.6796 22.9377 51.5831 22.906 51.4543 22.8743C51.3255 22.8426 51.1645 22.8426 50.9713 22.8426H50.0698V24.3644H51.1001Z" fill="#404040"/>
<path d="M53.4811 20.7813C53.5455 20.7813 53.5777 20.7812 53.6421 20.813C53.6743 20.8447 53.7065 20.8764 53.7065 20.9398V24.5541C53.7065 24.6175 53.6743 24.6492 53.6421 24.6809C53.6099 24.7127 53.5455 24.7126 53.4811 24.7126C53.4168 24.7126 53.3846 24.7127 53.3524 24.6809C53.3202 24.6492 53.288 24.6175 53.288 24.5541V20.9398C53.288 20.8764 53.3202 20.8447 53.3524 20.813C53.3846 20.7812 53.449 20.7813 53.4811 20.7813Z" fill="#404040"/>
<path d="M54.965 20.7813C55.0294 20.7813 55.0616 20.7812 55.126 20.813C55.1582 20.8447 55.1904 20.8764 55.1904 20.9398V24.3639H57.0578C57.1222 24.3639 57.1544 24.3956 57.1866 24.4273C57.2188 24.459 57.2188 24.4907 57.2188 24.5541C57.2188 24.6175 57.2188 24.6492 57.1866 24.6809C57.1544 24.7127 57.1222 24.7444 57.0578 24.7444H55.1582C55.0294 24.7444 54.9328 24.7127 54.8684 24.6809C54.804 24.6175 54.7719 24.5224 54.7719 24.3956V20.9398C54.7719 20.8764 54.804 20.8447 54.8362 20.813C54.8684 20.7812 54.9328 20.7813 54.965 20.7813Z" fill="#404040"/>
<path d="M58.1203 20.7813C58.1847 20.7813 58.2169 20.7812 58.2813 20.813C58.3135 20.8447 58.3457 20.8764 58.3457 20.9398V24.5541C58.3457 24.6175 58.3135 24.6492 58.2813 24.6809C58.2491 24.7127 58.1847 24.7126 58.1203 24.7126C58.0559 24.7126 58.0237 24.7127 57.9915 24.6809C57.9593 24.6492 57.9271 24.6175 57.9271 24.5541V20.9398C57.9271 20.8764 57.9593 20.8447 57.9915 20.813C58.0237 20.7812 58.0559 20.7813 58.1203 20.7813Z" fill="#404040"/>
<path d="M62.0143 20.8447C62.0465 20.8764 62.0465 20.9081 62.0465 20.9715C62.0465 21.0349 62.0465 21.0666 62.0143 21.0983C61.9821 21.13 61.9499 21.1617 61.9177 21.1617H60.7586V24.5858C60.7586 24.6492 60.7264 24.6809 60.6942 24.7127C60.662 24.7444 60.5976 24.7444 60.5332 24.7444C60.4688 24.7444 60.4367 24.7444 60.4045 24.7127C60.3723 24.6809 60.3401 24.6492 60.3401 24.5858V21.1617H59.181C59.1166 21.1617 59.0844 21.13 59.0844 21.0983C59.0522 21.0666 59.0522 21.0349 59.0522 20.9715C59.0522 20.9081 59.0522 20.8764 59.0844 20.8447C59.1166 20.813 59.1488 20.7812 59.181 20.7812H61.9177C61.9499 20.813 61.9821 20.813 62.0143 20.8447Z" fill="#404040"/>
<path d="M65.2993 20.813C65.3637 20.8447 65.3959 20.8764 65.3959 20.9081C65.4281 20.9398 65.3959 21.0032 65.3637 21.0666L64.1402 23.1274V24.5858C64.1402 24.6492 64.108 24.6809 64.0758 24.7127C64.0436 24.7444 63.9792 24.7444 63.9148 24.7444C63.8504 24.7444 63.8182 24.7444 63.786 24.7127C63.7539 24.6809 63.7217 24.6492 63.7217 24.5858V23.1274L62.466 21.0666C62.4338 21.0032 62.4338 20.9715 62.4338 20.9081C62.4338 20.8764 62.466 20.813 62.5304 20.813C62.5626 20.7812 62.627 20.7813 62.6913 20.7813C62.7557 20.7813 62.7879 20.813 62.8201 20.8764L63.947 22.7469L65.0417 20.8764C65.0739 20.813 65.1061 20.7813 65.1705 20.7813C65.2349 20.7813 65.2349 20.7812 65.2993 20.813Z" fill="#404040"/>
</svg>
