<svg width="45" height="13" viewBox="0 0 45 13" fill="none" xmlns="http://www.w3.org/2000/svg">
<path d="M8.72747 5.08325H7.03125V11.8576H8.72747V5.08325Z" fill="#5A46FA"/>
<path d="M5.33538 10.1677H0L5.86584 0L7.33384 0.84525L2.936 8.47101H5.33538V10.1677Z" fill="#5A46FA"/>
<path d="M18.8877 10.1675H10.4189V11.8642H18.8877V10.1675Z" fill="#5A46FA"/>
<path d="M18.2591 3.7265C18.2591 2.69616 17.8397 1.76454 17.1674 1.09204C16.4951 0.41954 15.5575 0 14.5336 0C13.5097 0 12.5722 0.41954 11.8999 1.09204C11.2275 1.76454 10.8081 2.69616 10.8081 3.7265H12.5043C12.5043 3.16506 12.7325 2.65914 13.1026 2.28896C13.4727 1.91878 13.9785 1.6905 14.5398 1.6905C15.1011 1.6905 15.6069 1.91878 15.977 2.28896C16.347 2.65914 16.5753 3.16506 16.5753 3.7265C16.5753 4.01031 16.5259 4.27561 16.384 4.54708C16.2237 4.85556 15.8783 5.25042 15.5329 5.56508L12.3069 8.47101H14.8359L16.6369 6.84838C17.2167 6.33012 17.7102 5.70698 17.9199 5.26276C18.1604 4.75685 18.2591 4.28795 18.2591 3.7265Z" fill="#5A46FA"/>
<path d="M24.98 4.91049C23.3887 4.91049 22.0995 6.19996 22.0995 7.79174C22.0995 9.38353 23.3948 10.673 24.98 10.673C26.5714 10.673 27.8605 9.38353 27.8605 7.79174C27.8605 6.19996 26.5714 4.91049 24.98 4.91049ZM27.8112 10.8519C27.5213 11.1542 27.1758 11.4195 26.7934 11.6046C26.2445 11.8761 25.6215 12.0242 24.9862 12.0242C22.6485 12.0242 20.7549 10.1301 20.7549 7.78557C20.7549 5.44108 22.6485 3.55315 24.9862 3.55315C25.6215 3.55315 26.2445 3.70122 26.7934 3.97269C27.182 4.16395 27.5274 4.42308 27.8173 4.73156V1.01123H29.1743V11.8514H27.8173L27.8112 10.8519Z" fill="#5A46FA"/>
<path d="M38.821 7.79199C38.821 10.1303 36.9274 12.0244 34.5897 12.0244C32.252 12.0244 30.3584 10.1303 30.3584 7.79199C30.3584 5.45367 32.252 3.55957 34.5897 3.55957C36.9274 3.55957 38.821 5.45367 38.821 7.79199ZM34.5835 4.91074C32.9922 4.91074 31.703 6.20021 31.703 7.79199C31.703 9.38378 32.9922 10.6732 34.5835 10.6732C36.1749 10.6732 37.464 9.38378 37.464 7.79199C37.464 6.20021 36.1749 4.91074 34.5835 4.91074Z" fill="#5A46FA"/>
<path d="M44.9998 5.08342H42.4585V11.8578H41.1077V5.08342H39.0723V3.72608H41.1077V1.01758H42.4585V3.72608H44.9998V5.08342Z" fill="#5A46FA"/>
</svg>
