<svg width="75" height="20" viewBox="0 0 75 20" fill="none" xmlns="http://www.w3.org/2000/svg">
<path d="M10.8729 2.77644C10.913 2.81689 10.9531 2.89779 10.9531 2.93825C10.9932 3.10006 11.1536 3.22142 11.1937 3.38323C11.1937 3.42368 11.2738 3.46413 11.3139 3.46413C11.354 3.50458 11.3139 3.58549 11.3941 3.66639C11.4342 3.70685 11.3941 3.7473 11.3941 3.78775C11.4342 3.82821 11.4743 3.86866 11.5144 3.86866C11.8351 4.39454 11.8752 5.04179 11.4743 5.60812C11.3941 5.68903 11.354 5.76994 11.3139 5.85084C11.2738 5.89129 11.2337 5.93175 11.1937 5.93175C11.1937 5.9722 11.2337 6.01265 11.2738 6.0531C11.1135 6.09356 11.0734 6.25537 10.9531 6.33627C10.913 6.33627 10.8328 6.33627 10.8328 6.33627C10.7527 6.41718 10.6324 6.45763 10.5522 6.53854C10.5121 6.57899 10.5121 6.65989 10.5522 6.70035C10.3919 6.82171 10.1513 6.90261 9.91079 6.90261C9.87071 6.90261 9.87071 6.98352 9.83062 6.98352C9.67026 6.98352 9.42972 6.98352 9.26937 7.02397C9.18919 6.98352 9.1491 6.94306 9.06892 6.94306C8.98874 6.94306 8.94865 6.94306 8.86847 6.94306C8.7482 6.86216 8.62794 6.86216 8.50767 6.82171C8.42749 6.78125 8.30722 6.86216 8.22704 6.82171C7.98651 6.61944 7.74597 6.41718 7.6257 6.17446C7.54552 6.0531 7.38517 6.01265 7.34508 5.85084C7.34508 5.81039 7.38517 5.68903 7.30499 5.68903C7.14463 5.64858 7.22481 5.56767 7.22481 5.48677C7.18472 5.40586 7.18472 5.36541 7.10454 5.2845C7.06445 5.2036 7.10454 5.08224 7.06445 4.96088C7.06445 4.92043 7.10454 4.92043 7.10454 4.87998C7.06445 4.71817 7.14463 4.5159 7.10454 4.39454C7.10454 4.31364 7.10454 4.19228 7.14463 4.11137C7.22481 3.94956 7.30499 3.70685 7.46535 3.54504C7.46535 3.50458 7.46535 3.46413 7.46535 3.42368C7.50544 3.38323 7.54552 3.38323 7.54552 3.34277C7.58561 3.18096 7.66579 3.0596 7.74597 2.93825C7.78606 2.81689 7.98651 2.65508 8.14686 2.49327C8.22704 2.41236 8.3874 2.33146 8.46758 2.16964C8.50767 2.12919 8.62794 2.16964 8.62794 2.16964C8.70812 2.08874 8.86847 2.08874 8.94865 2.00783C9.02883 1.92693 9.02883 2.08874 9.10901 2.04829C9.18919 2.04829 9.22928 2.00783 9.26937 1.96738C9.38963 1.92693 9.46981 2.00783 9.59008 2.00783C9.71035 2.00783 9.79053 2.00783 9.91079 2.08874C10.0712 2.16964 10.3919 2.16964 10.472 2.33146C10.6324 2.53372 10.7928 2.61462 10.8729 2.77644Z" fill="#737D8C"/>
<path d="M16.7653 5.00001C16.7653 4.91911 16.7653 4.87865 16.7252 4.75729C16.7252 4.67639 16.7653 4.55503 16.7653 4.43367C16.7653 4.39322 16.6851 4.35276 16.7252 4.35276C16.7653 4.1505 16.8054 3.98869 16.7653 3.78642C16.7653 3.70552 16.7252 3.70552 16.7252 3.66506C16.7252 3.62461 16.7252 3.58416 16.7653 3.5437C16.7653 3.38189 16.7252 3.26053 16.6851 3.09872C16.6851 3.05827 16.6451 3.01782 16.605 2.89646C16.605 2.856 16.5248 2.81555 16.5649 2.81555C16.605 2.57283 16.4847 2.37057 16.4446 2.12785C16.3243 1.84468 16.0838 1.68287 16.0036 1.44015C16.0036 1.3997 16.0838 1.44015 16.1239 1.44015C16.3243 1.64242 16.5248 1.84468 16.605 2.12785C16.6451 2.20876 16.605 2.28966 16.6451 2.37057C16.8054 2.53238 16.8455 2.7751 16.8856 3.05827C16.8856 3.09872 16.9257 3.05827 16.9658 3.09872C16.9658 3.13917 16.9658 3.17963 16.9658 3.22008C17.086 3.38189 17.0059 3.50325 17.0459 3.66506C17.0459 3.70552 17.086 3.74597 17.086 3.78642C17.086 3.82688 17.0059 3.86733 17.0059 3.90778C17.1261 4.02914 17.1662 4.2314 17.1261 4.39322C17.2464 4.43367 17.2063 4.59548 17.2063 4.71684C17.2063 4.75729 17.2464 4.75729 17.2865 4.75729C17.3266 4.71684 17.3667 4.67639 17.3667 4.59548C17.3667 4.35276 17.4068 4.19095 17.3667 3.94823C17.3266 3.86733 17.3266 3.78642 17.3667 3.70552C17.3266 3.70552 17.2865 3.62461 17.2865 3.58416C17.2063 3.22008 17.1662 2.81555 17.0459 2.45147L17.086 2.41102C17.0459 2.0874 16.8054 1.80423 16.6851 1.44015C16.6851 1.3997 16.5649 1.31879 16.5248 1.23789V1.19743C16.6451 1.19743 16.7252 1.31879 16.8054 1.44015C16.9257 1.64242 17.086 1.84468 17.1261 2.04695C17.2063 2.28966 17.3266 2.45147 17.3667 2.65374C17.4068 2.7751 17.4869 2.856 17.527 2.93691C17.5671 3.01782 17.527 3.09872 17.5671 3.17963C17.6072 3.38189 17.6473 3.58416 17.6874 3.78642C17.7275 3.94823 17.7676 4.11005 17.7275 4.2314C17.6473 4.47412 17.8076 4.71684 17.8878 4.95956C17.9279 5.04046 17.8878 5.16182 17.8477 5.24273C17.8477 5.28318 17.8878 5.32363 17.8878 5.32363C17.8477 5.44499 17.8878 5.5259 17.8477 5.64726C17.8076 5.68771 17.8878 5.72816 17.8477 5.76862C17.8076 5.80907 17.8076 5.76862 17.7676 5.80907C17.7275 5.88998 17.7676 5.97088 17.7676 6.05179C17.6874 6.2136 17.7275 6.41586 17.5671 6.53722C17.527 6.53722 17.527 6.57768 17.4869 6.61813C17.527 6.61813 17.527 6.65858 17.5671 6.69903C17.527 6.73949 17.527 6.69903 17.4869 6.73949C17.4869 6.77994 17.5671 6.86085 17.6072 6.9013C17.5671 7.10356 17.4068 7.30583 17.4068 7.54855C17.4068 7.589 17.3667 7.66991 17.3667 7.75081C17.3266 7.87217 17.2063 7.99353 17.1662 8.11489C17.1662 8.15534 17.0459 8.15534 17.0459 8.23625C16.9658 8.31715 17.0059 8.43851 16.9257 8.51942C16.8856 8.55987 16.8054 8.55987 16.7653 8.60032C16.6851 8.68123 16.7252 8.80259 16.6451 8.88349C16.5649 9.00485 16.4847 9.12621 16.4045 9.28802C16.3243 9.44983 16.164 9.6521 16.0437 9.77346C16.0036 9.77346 15.9635 9.77346 15.9234 9.81391C15.8433 9.97572 15.7631 10.0971 15.6027 10.178C15.5626 10.178 15.5226 10.2993 15.5226 10.2993C15.4023 10.3803 15.3221 10.5016 15.2018 10.5825C15.1618 10.5825 15.1217 10.623 15.0816 10.5421C14.8811 10.8657 14.6406 11.1084 14.4001 11.3511C14.2798 11.432 14.1194 11.432 14.0392 11.5129C13.7185 11.7961 13.2375 12.1197 13.1974 12.1602C13.1573 12.1602 13.0771 12.2815 13.0771 12.2815C12.9969 12.2815 13.037 12.2815 12.9568 12.2815C12.9568 12.2815 12.9568 12.4434 12.8366 12.4434C12.596 12.4838 12.5159 12.8074 12.4758 12.9288C12.4758 13.0097 12.4357 12.9288 12.3956 12.9692C12.3555 13.0097 12.3956 13.0501 12.3555 13.0501C12.2352 13.1311 12.1551 13.2524 12.0348 13.3738C11.9947 13.4142 11.9947 13.3738 11.9546 13.3738C11.9145 13.4142 11.7942 13.576 11.7542 13.7378C11.6339 14.021 11.5136 14.2233 11.3533 14.4255C11.3132 14.466 11.4334 14.6683 11.4334 14.7087C11.2731 14.7896 11.1929 14.7896 11.1528 14.8705C11.1127 15.0728 11.1127 15.3155 11.0726 15.5178C11.0326 15.72 11.0726 15.8819 11.1127 16.0841C11.1528 16.2459 11.1127 16.4482 11.1127 16.61C11.1127 16.7314 11.1929 16.8932 11.1929 17.0145C11.1929 17.2168 11.1528 17.1763 11.1929 17.3382C11.1929 17.4191 11.1528 17.5404 11.1929 17.5809C11.1929 17.7022 11.1528 17.7831 11.1528 17.9045C11.1127 17.945 11.0726 17.9854 11.0726 18.0259C11.0726 18.3495 10.8722 18.5922 10.6317 18.7945C10.5114 18.8754 10.3911 18.9967 10.2308 18.9967C10.1506 18.9967 9.91005 19.1585 9.82987 19.1585C9.58934 19.2394 9.42898 19.2395 9.22854 19.199C8.988 19.1181 8.82764 19.0776 8.66729 18.8349C8.58711 18.7136 8.42675 18.754 8.34657 18.5922C8.34657 18.5113 8.18621 18.5113 8.18621 18.4708C8.06595 18.3495 7.98577 18.2281 7.90559 18.1068C7.82541 17.945 7.90559 17.8236 7.82541 17.6618C7.74523 17.5809 7.70514 17.5 7.62496 17.3786C7.5047 17.2573 7.66505 17.055 7.58487 16.9336C7.54478 16.8932 7.46461 16.8527 7.46461 16.7718C7.42452 16.6505 7.42452 16.4482 7.34434 16.3268C7.30425 16.165 7.34434 15.5987 7.34434 15.4369C7.34434 15.3964 7.26416 15.356 7.26416 15.3155C7.26416 15.0728 7.34434 14.8705 7.34434 14.6278C7.38443 14.5065 7.34434 14.3851 7.46461 14.3042C7.46461 14.3042 7.42452 14.2637 7.42452 14.2233C7.5047 14.021 7.5047 13.8997 7.54478 13.6974C7.54478 13.6569 7.62496 13.6569 7.62496 13.6165C7.58487 13.4951 7.58487 13.212 7.62496 13.0501C7.62496 12.9692 7.78532 12.8883 7.82541 12.8479C7.82541 12.8074 7.78532 12.7265 7.8655 12.6456C7.8655 12.6052 7.90559 12.6456 7.94568 12.6052C7.94568 12.5647 7.94568 12.5243 7.94568 12.5243C7.94568 12.4434 8.10603 12.3624 8.14612 12.2815C8.2263 12.0793 8.30648 11.9579 8.42675 11.7961C8.46684 11.7152 8.46684 11.6343 8.54702 11.5534C8.58711 11.5129 8.58711 11.5534 8.58711 11.5129C8.58711 11.4725 8.58711 11.432 8.58711 11.3916C8.66729 11.3107 8.74746 11.2702 8.74746 11.1893C8.78755 11.068 8.82764 11.0275 8.90782 10.9466C9.02809 10.8657 9.14836 10.7848 9.22854 10.6634C9.30871 10.5825 9.3488 10.623 9.42898 10.5421C9.50916 10.4612 9.54925 10.2993 9.62943 10.2184C9.78979 10.0162 9.95014 9.89482 10.1506 9.77346C10.3109 9.6521 10.4713 9.61165 10.6317 9.53074C10.792 9.40938 10.8722 9.20712 10.9925 9.12621C11.0726 9.04531 11.1929 9.04531 11.2731 9.00485C11.3533 8.92395 11.4334 8.80259 11.5537 8.80259C11.8343 8.72168 11.6339 8.80259 11.9145 8.68123C12.0749 8.55987 11.9947 8.55987 12.1951 8.43851C12.4758 8.2767 12.6361 8.15534 12.6361 8.15534C12.6762 8.11489 12.6762 8.11489 12.7163 8.07443C12.7965 7.99353 13.1573 7.71036 13.1974 7.71036C13.2375 7.71036 13.3176 7.75081 13.3577 7.71036C13.3978 7.66991 13.3176 7.62945 13.3577 7.54855C13.4379 7.46764 13.5181 7.34628 13.6384 7.26538C13.6784 7.22492 13.7185 7.30583 13.7987 7.26538C13.8388 7.22492 13.8388 7.18447 13.8789 7.18447C13.919 7.14402 13.8388 7.06311 13.8789 7.02266C13.919 6.94175 13.9591 6.86085 13.9992 6.86085C14.0793 6.82039 14.1996 6.77994 14.1996 6.69903C14.1996 6.57768 14.2798 6.49677 14.36 6.41586C14.36 6.37541 14.36 6.37541 14.36 6.33496C14.4401 6.25405 14.4802 6.2136 14.5604 6.13269C14.6406 6.05179 14.6005 5.93043 14.6406 5.84952C14.7609 5.68771 14.8811 5.6068 14.9212 5.40454C14.9212 5.32363 14.841 5.20228 14.8811 5.12137C14.9212 5.08092 15.0415 5.04046 15.0415 5.00001C15.0415 4.87865 15.0014 4.75729 15.0014 4.63593C15.0014 4.55503 15.1217 4.47412 15.0816 4.39322C15.0816 4.1505 15.0816 3.94823 15.0415 3.70552C15.1217 3.70552 15.1217 3.62461 15.1217 3.58416C15.1217 3.42235 15.0014 3.26053 14.9613 3.05827C14.9613 2.93691 15.0415 2.856 15.0415 2.73465C15.0415 2.65374 14.9613 2.53238 14.841 2.45147C14.7609 2.33012 14.8009 2.20876 14.8009 2.0874C14.7609 1.92559 14.6807 1.84468 14.6406 1.64242C14.6406 1.56151 14.5203 1.56151 14.4802 1.4806C14.4401 1.35925 14.4401 1.23789 14.4401 1.11653C14.4401 1.07607 14.36 1.07607 14.3199 1.03562C14.2397 0.87381 14.2397 0.550186 14.0392 0.46928C14.0392 0.347921 13.9591 0.347921 13.919 0.226562C14.0392 0.226562 14.1595 0.267015 14.2397 0.428827C14.2397 0.46928 14.3199 0.46928 14.36 0.46928C14.4401 0.550186 14.4001 0.711998 14.4802 0.752451C14.5604 0.833357 14.7208 0.792904 14.7208 0.914263C14.7609 1.07607 14.8811 1.15698 14.9212 1.27834C14.9212 1.31879 14.9212 1.35925 14.9613 1.3997C15.0415 1.4806 15.0415 1.56151 15.1217 1.64242C15.282 1.80423 15.4023 2.00649 15.3622 2.24921C15.3221 2.37057 15.4424 2.33012 15.4825 2.37057C15.5626 2.53238 15.5226 2.73465 15.6829 2.89646C15.6428 3.17963 15.8032 3.42235 15.8834 3.66506C15.723 3.90778 15.8032 4.27186 15.9234 4.51458C15.9234 4.51458 16.0036 4.51458 16.0036 4.47412C16.0437 4.35276 16.2843 4.31231 16.2442 4.2314C16.0838 4.06959 16.0036 3.74597 16.0036 3.62461C16.0036 3.38189 16.0437 3.22008 16.0036 2.97736C16.0036 2.93691 15.9635 2.89646 15.9635 2.89646C15.9234 2.7751 15.9234 2.65374 15.9234 2.53238C15.9234 2.45147 15.8834 2.45147 15.8433 2.37057C15.8433 2.33012 15.8433 2.28966 15.8433 2.24921C15.8834 2.24921 15.9635 2.28966 16.0036 2.28966C16.0437 2.33012 16.0036 2.41102 16.0437 2.45147C16.1239 2.57283 16.2442 2.65374 16.2843 2.7751C16.2843 2.81555 16.2843 2.856 16.2843 2.89646C16.2843 3.05827 16.4045 3.22008 16.4446 3.34144C16.4446 3.42235 16.3644 3.5437 16.4045 3.66506C16.5248 3.90778 16.5248 4.1505 16.4847 4.39322C16.4446 4.51458 16.605 4.59548 16.5649 4.67639C16.5248 4.75729 16.5649 4.75729 16.5248 4.8382C16.5248 4.87865 16.4847 4.87865 16.4446 4.91911C16.5248 5.08092 16.4045 5.32363 16.3644 5.44499C16.3644 5.48545 16.4446 5.48545 16.4847 5.40454C16.4847 5.36409 16.605 5.36409 16.6451 5.32363C16.7252 5.20228 16.7653 5.12137 16.7653 5.00001ZM17.2865 5.5259C17.2865 5.40454 17.3667 5.28318 17.3266 5.12137C17.2865 4.95956 17.1662 5.12137 17.086 5.12137C17.1261 5.28318 17.0459 5.44499 17.0059 5.56635C16.9658 5.6068 16.9658 5.76862 17.0059 5.72816C17.1662 5.84952 17.2865 5.72816 17.2865 5.5259ZM17.086 6.29451C17.1261 6.25405 17.086 6.17315 17.0459 6.13269C16.9658 6.09224 16.8856 6.17315 16.8455 6.2136C16.8054 6.29451 16.8455 6.41586 16.9257 6.41586C16.9658 6.41586 17.0459 6.33496 17.086 6.29451Z" fill="#737D8C"/>
<path d="M15.6435 1.64241C15.7638 1.72332 15.844 1.92559 15.9241 2.04696V2.08741C15.7237 2.24923 15.6034 1.96605 15.5232 1.84468C15.4431 1.68286 15.3629 1.52104 15.2426 1.39968C15.2426 1.35922 15.2426 1.35922 15.2426 1.31877C15.2025 1.23786 15.1223 1.15695 15.2025 1.11649C15.2426 1.07604 15.2827 1.15695 15.3629 1.1974C15.4431 1.35922 15.4832 1.52104 15.6435 1.64241Z" fill="#737D8C"/>
<path d="M16.3656 0.914034C16.3656 0.954556 16.3254 0.995079 16.3254 1.0356C16.245 0.954556 16.1647 0.873511 16.0843 0.751943C16.0441 0.751943 16.0039 0.751943 16.0039 0.711421C15.9638 0.711421 16.0039 0.670898 16.0039 0.670898C16.0843 0.670898 16.1647 0.751943 16.2048 0.792466C16.245 0.792466 16.245 0.792466 16.2852 0.792466C16.3254 0.792466 16.3656 0.832989 16.3656 0.914034Z" fill="#737D8C"/>
<path d="M5.26002 5.97023C5.30011 5.97023 5.30011 6.01068 5.3402 6.05114C5.38029 6.09159 5.42038 6.09159 5.46047 6.05114C5.50056 6.05114 5.54065 6.17249 5.58074 6.17249C5.62082 6.21295 5.66091 6.29385 5.74109 6.37476C5.78118 6.41521 5.82127 6.45566 5.86136 6.45566C5.90145 6.53657 5.94154 6.61747 6.02172 6.65792C6.06181 6.69838 6.14198 6.69838 6.18207 6.69838C6.26225 6.73883 6.30234 6.86019 6.34243 6.90064C6.38252 6.90064 6.38252 6.98154 6.38252 6.98154C6.42261 7.022 6.4627 7.06245 6.50279 7.1029C6.50279 7.14335 6.50279 7.18381 6.54288 7.18381C6.70323 7.42652 6.90368 7.58833 7.02395 7.83104C7.02395 7.83104 7.02395 7.8715 7.02395 7.91195C7.1843 8.07376 7.26448 8.27602 7.38475 8.43783C7.42484 8.51873 7.46493 8.64009 7.50502 8.721C7.54511 8.76145 7.5852 8.8019 7.62528 8.84235C7.66537 8.92326 7.74555 9.04462 7.74555 9.16597C7.74555 9.20643 7.70546 9.32778 7.62528 9.28733C7.54511 9.20643 7.54511 9.04462 7.42484 8.96371C7.42484 8.92326 7.38475 8.88281 7.38475 8.84235C7.34466 8.8019 7.26448 8.8019 7.26448 8.721C7.26448 8.64009 7.1843 8.59964 7.14421 8.55919C7.06404 8.43783 6.90368 8.35693 6.78341 8.23557C6.74332 8.23557 6.74332 8.23557 6.70323 8.23557C6.66314 8.27602 6.62305 8.35693 6.66314 8.39738C6.74332 8.43783 6.78341 8.55919 6.86359 8.59964C6.90368 8.64009 6.94377 8.8019 6.98386 8.88281C7.02395 8.92326 7.06403 8.96371 7.10412 9.00416C7.14421 9.04462 7.14421 9.12552 7.1843 9.20643C7.1843 9.24688 7.14421 9.24688 7.14421 9.28733C7.1843 9.36824 7.26448 9.32778 7.30457 9.40869C7.34466 9.36824 7.42484 9.40869 7.46493 9.44914C7.38475 9.53005 7.42484 9.5705 7.38475 9.61095C7.30457 9.73231 7.46493 9.81321 7.58519 9.89412C7.66537 9.89412 7.62528 10.0155 7.70546 10.0559C7.74555 10.1368 7.82573 10.1368 7.90591 10.2177C7.90591 10.2582 7.86582 10.2986 7.86582 10.3391C7.86582 10.42 7.946 10.42 7.98609 10.4605C8.02618 10.5009 8.02618 10.5414 8.06627 10.5818C7.98609 10.5818 7.86582 10.5009 7.82573 10.5009C7.78564 10.5009 7.70546 10.3795 7.62528 10.3795C7.5852 10.3795 7.58519 10.42 7.54511 10.42C7.50502 10.42 7.46493 10.42 7.42484 10.3795C7.38475 10.3795 7.26448 10.2582 7.22439 10.2582C7.1843 10.2582 7.10413 10.3391 7.06404 10.3391C6.86359 10.2986 6.86359 10.2986 6.8235 10.2582C6.74332 10.2177 6.70323 10.1773 6.62305 10.1773C6.58297 10.1368 6.58296 10.0964 6.54288 10.0964C6.50279 10.0559 6.42261 10.0559 6.38252 10.0559C6.22216 9.97502 6.10189 9.77276 5.98163 9.69185C5.90145 9.6514 5.82127 9.61095 5.74109 9.5705C5.701 9.53005 5.66091 9.48959 5.62082 9.44914C5.46047 9.40869 5.30011 9.28733 5.09967 9.20643C4.73886 9.08507 4.41815 9.32778 4.09744 9.48959C4.09744 9.48959 4.05735 9.48959 4.01726 9.48959C3.93708 9.5705 3.8569 9.5705 3.77672 9.61095C3.69654 9.69186 3.53619 9.69186 3.45601 9.77276C3.41592 9.77276 3.41592 9.85366 3.37583 9.89412C3.33574 9.93457 3.25556 9.93457 3.17538 9.97502C3.13529 10.0155 3.13529 10.0559 3.09521 10.0964C3.01503 10.1773 2.93485 10.2177 2.81458 10.2986C2.7344 10.3391 2.17315 10.42 2.09298 10.42C1.93262 10.42 1.85244 10.5414 1.61191 10.5414C1.29119 10.5414 0.970478 10.5414 0.689854 10.3391C0.649765 10.2986 0.609676 10.1368 0.569587 10.1368C0.449319 10.0559 0.449319 9.89412 0.40923 9.77276C0.449319 9.77276 0.369141 9.77276 0.369141 9.69185C0.40923 9.36824 0.569587 9.04462 0.770033 8.8019C0.810122 8.721 0.930389 8.68054 0.930389 8.55919C0.930389 8.55919 1.13084 8.31647 1.21101 8.19512C1.2511 8.15466 1.21101 8.07376 1.21101 8.03331C1.41146 7.70969 1.73217 7.50742 1.97271 7.18381C2.05289 7.1029 2.09298 7.02199 2.17315 7.02199C2.21324 7.02199 2.25333 7.022 2.29342 6.98154C2.33351 6.86019 2.41369 6.81973 2.49387 6.77928C2.7344 6.61747 2.93485 6.37476 3.21547 6.3343C3.25556 6.3343 3.29565 6.2534 3.33574 6.2534C3.37583 6.21295 3.45601 6.2534 3.4961 6.2534C3.69654 6.17249 3.89699 5.97023 4.09744 5.92978C4.13752 5.92978 4.17761 5.84887 4.17761 5.84887C4.37806 5.84887 4.57851 5.68707 4.73886 5.88933C4.89922 5.84887 5.13975 5.88933 5.26002 5.97023ZM6.66314 7.9524C6.66314 7.91195 6.66314 7.91195 6.66314 7.8715C6.58296 7.83104 6.54288 7.66923 6.4627 7.66923C6.42261 7.66923 6.38252 7.66923 6.38252 7.70969C6.38252 7.83104 6.42261 7.9524 6.50279 8.07376C6.54288 7.99285 6.58297 7.99285 6.62305 8.07376C6.62305 8.03331 6.66314 7.99285 6.66314 7.9524Z" fill="#737D8C"/>
<path d="M26.4253 14.3454L25.5033 15.3163L22.8975 12.7677C22.5367 13.3745 22.1358 13.9004 21.6948 14.305C21.2137 14.7499 20.7327 15.0736 20.2917 15.3567L19.3696 14.305C19.8908 14.0622 20.3318 13.7386 20.6926 13.415C21.0534 13.0509 21.334 12.7273 21.5745 12.3228C21.8151 11.9587 21.9754 11.5542 22.0957 11.1496C22.216 10.7451 22.256 10.381 22.256 9.9765V8.15612H23.6993V9.69333C23.6993 9.9765 23.6993 10.3001 23.6592 10.5428C23.6191 10.826 23.579 11.0687 23.4988 11.3519L26.4253 14.3454ZM29.3919 18.7952H28.0289V11.8778H25.2226V10.5428H28.069V7.02344H29.432V18.7952H29.3919Z" fill="#737D8C"/>
<path d="M41.6986 13.6571H36.8478V14.3043H39.2531V17.3383H34.6028V17.9046H39.5738V19.2396H33.1996V16.0842H37.85V15.5584H33.1195V14.3043H35.4446V13.6571H30.7141V12.3626H41.6986V13.6571ZM39.1328 9.49043C39.1328 9.8545 39.0527 10.2186 38.8923 10.5017C38.732 10.8254 38.5315 11.0681 38.2509 11.3108C37.9703 11.5131 37.6495 11.6749 37.2887 11.7962C36.9279 11.9176 36.5271 11.9581 36.0861 11.9581C35.6852 11.9581 35.2843 11.9176 34.9235 11.7962C34.5627 11.6749 34.242 11.5131 33.9613 11.3108C33.6807 11.1085 33.4803 10.8254 33.3199 10.5422C33.1596 10.2186 33.0794 9.89495 33.0794 9.49043C33.0794 9.0859 33.1596 8.76227 33.3199 8.43865C33.4803 8.11503 33.6807 7.87231 33.9613 7.62959C34.242 7.38688 34.5226 7.22506 34.9235 7.10371C35.2843 6.98235 35.6852 6.94189 36.1262 6.94189C36.5271 6.94189 36.9279 6.98235 37.3288 7.10371C37.6896 7.22506 38.0104 7.38688 38.291 7.62959C38.5716 7.83186 38.772 8.11503 38.9324 8.43865C39.0527 8.76227 39.1328 9.12635 39.1328 9.49043ZM37.7297 9.49043C37.7297 9.0859 37.5694 8.76227 37.2487 8.51956C36.9279 8.27684 36.5271 8.15548 36.0861 8.15548C35.6451 8.15548 35.2442 8.27684 34.9235 8.4791C34.6028 8.72182 34.4424 9.04544 34.4424 9.44997C34.4424 9.8545 34.6028 10.1377 34.9235 10.3804C35.2442 10.6231 35.605 10.704 36.0861 10.704C36.5271 10.704 36.9279 10.5827 37.2487 10.3804C37.5694 10.259 37.7297 9.93541 37.7297 9.49043Z" fill="#737D8C"/>
<path d="M53.2046 14.5059H42.2603V13.2114H53.2046V14.5059ZM50.8393 19.2388H49.4763V16.5285H44.5854V15.1936H50.8393V19.2388ZM50.7992 12.5238H44.5854V7.42676H50.7191V8.72123H45.9485V9.28757H50.5587V10.6225H45.9485V11.2293H50.7992V12.5238Z" fill="#737D8C"/>
<path d="M59.3791 13.0505H54.1675V7.67027H55.5305V9.20749H58.016V7.67027H59.3791V13.0505ZM57.9759 11.756V10.5424H55.4904V11.756H57.9759ZM63.2276 19.2399H56.9336V16.0036H61.5038V15.3159H56.8535V14.0214H62.9069V17.2577H58.3768V17.9454H63.2276V19.2399ZM63.3078 13.6573H61.9448V12.4033H59.7399V11.1088H61.9448V10.1784H59.7399V8.88386H61.9448V7.06348H63.3078V13.6573Z" fill="#737D8C"/>
<path d="M71.6876 14.3854L70.7655 15.3563L68.1597 12.7673C67.839 13.3741 67.4381 13.9 66.9571 14.345C66.476 14.7899 65.9949 15.1136 65.5138 15.3967L64.5918 14.345C65.113 14.0618 65.5539 13.7382 65.9147 13.4146C66.2755 13.0505 66.5562 12.7269 66.7967 12.3223C67.0372 11.9583 67.1976 11.5537 67.2778 11.1897C67.398 10.7851 67.4381 10.4211 67.4381 10.057V8.19615H68.8813V9.77381C68.8813 10.057 68.8813 10.3806 68.8412 10.6233C68.8012 10.9065 68.7611 11.1492 68.6809 11.3919L71.6876 14.3854ZM74.4938 18.7948H73.1308V7.06348H74.4938V18.7948Z" fill="#737D8C"/>
</svg>
