<svg width="54" height="21" viewBox="0 0 54 21" fill="none" xmlns="http://www.w3.org/2000/svg">
<path d="M21.1285 14.6582C20.6295 14.6582 20.1305 14.3666 19.9204 13.863L14.7465 2.5443C14.4313 1.85511 14.7202 1.05989 15.4031 0.741798C16.0597 0.423709 16.8476 0.71529 17.1627 1.40448L22.3367 12.7497C22.6518 13.4389 22.3629 14.2341 21.6801 14.5522C21.5225 14.6052 21.3124 14.6582 21.1285 14.6582Z" fill="#737D8C"/>
<path d="M27.9809 14.6582C27.4819 14.6582 26.9829 14.3666 26.7728 13.863L21.5726 2.5443C21.2575 1.85511 21.5464 1.05989 22.2292 0.741798C22.9121 0.423709 23.7 0.71529 24.0152 1.40448L29.1891 12.7497C29.5042 13.4389 29.2153 14.2341 28.5325 14.5522C28.3486 14.6052 28.1648 14.6582 27.9809 14.6582Z" fill="#737D8C"/>
<path d="M33.1812 0.609375C32.6822 0.609375 32.1832 0.900954 31.9731 1.40459L26.7992 12.7497C26.484 13.4388 26.7729 14.2341 27.4558 14.5521C28.1386 14.8702 28.9266 14.5787 29.2417 13.8895L34.4156 2.5444C34.7308 1.85521 34.4419 1.06 33.759 0.741911C33.5752 0.662389 33.3651 0.609375 33.1812 0.609375Z" fill="#737D8C"/>
<path d="M40.0387 0.609375C39.5397 0.609375 39.0407 0.900954 38.8306 1.40459L33.6566 12.7497C33.3415 13.4388 33.6304 14.2341 34.3132 14.5521C34.9961 14.8702 35.784 14.5787 36.0992 13.8895L41.2731 2.5444C41.5883 1.85521 41.2994 1.06 40.6165 0.741911C40.4064 0.662389 40.2226 0.609375 40.0387 0.609375Z" fill="#737D8C"/>
<path d="M46.8629 0.609375C46.3639 0.609375 45.8649 0.900954 45.6548 1.40459L40.4808 12.7497C40.1657 13.4388 40.4546 14.2341 41.1374 14.5521C41.8203 14.8702 42.6082 14.5787 42.9234 13.8895L48.0973 2.5444C48.4124 1.85521 48.1235 1.06 47.4407 0.741911C47.2568 0.662389 47.0467 0.609375 46.8629 0.609375Z" fill="#737D8C"/>
<path d="M52.0923 14.6582C51.5933 14.6582 51.0943 14.3666 50.8842 13.863L45.684 2.5443C45.3688 1.85511 45.6577 1.05989 46.3406 0.741798C47.0234 0.423709 47.8113 0.71529 48.1265 1.40448L53.3005 12.7497C53.6156 13.4389 53.3267 14.2341 52.6439 14.5522C52.46 14.6052 52.2762 14.6582 52.0923 14.6582Z" fill="#737D8C"/>
<path d="M13.8782 9.30374C13.4055 7.58077 11.7509 6.28192 9.96492 6.28192H8.86185C8.23152 6.28192 7.44361 6.28192 6.68196 6.28192C5.31625 6.28192 4.47581 6.28192 4.13438 6.28192C3.42526 6.28192 2.76867 5.61924 2.7424 4.87704C2.71614 4.45292 2.87372 4.05531 3.16262 3.73723C3.45152 3.44565 3.84548 3.2866 4.2657 3.2866H8.04767C9.28207 3.2866 10.4377 3.2866 11.068 3.2866C11.4094 3.2866 11.7509 3.15407 12.0135 2.889C12.2499 2.62392 12.4075 2.30584 12.4075 1.93474C12.4075 1.19253 11.8034 0.609375 11.0943 0.609375H10.2801H6.34053C5.18493 0.609375 4.5546 0.609375 4.16064 0.609375C4.00306 0.609375 3.84548 0.609375 3.6879 0.662389C2.61108 0.821433 1.77065 1.27206 1.11405 2.04077C0.299877 2.99503 -0.0415512 4.13484 0.142295 5.38068C0.273613 6.44096 0.772624 7.3157 1.5868 8.00489C2.29592 8.61456 3.1101 8.93264 4.02933 8.95915C4.2657 8.95915 4.52834 8.95915 4.76471 8.95915C4.92229 8.95915 5.07987 8.95915 5.23746 8.95915C5.39504 8.95915 5.84152 8.95915 6.41932 8.95915C6.9446 8.95915 7.57493 8.95915 8.15273 8.95915C9.22954 8.95915 9.85987 8.95915 10.0437 8.98566C10.4639 9.01217 10.8316 9.25073 11.0943 9.59532C11.3569 9.93992 11.4357 10.3905 11.3569 10.7881C11.1993 11.5038 10.6215 11.9545 9.88613 11.9545C9.41339 11.9545 8.65174 11.9545 7.78504 11.9545H4.10812C3.24141 11.9545 2.47977 11.9545 2.00702 11.9545C1.5868 11.9545 1.19284 12.14 0.930206 12.4846C0.667569 12.8027 0.588778 13.2268 0.693833 13.6509C0.851415 14.2341 1.37669 14.6582 2.00702 14.6582H6.89207C8.07394 14.6582 9.12449 14.6582 9.72855 14.6582H9.75482C10.0437 14.6582 10.2801 14.6317 10.4902 14.6052C11.5145 14.4461 12.3812 13.9955 13.0378 13.2003C13.9833 12.087 14.2722 10.7616 13.8782 9.30374Z" fill="#737D8C"/>
<path d="M26.0391 17.2812C26.3542 17.2812 26.6431 17.3343 26.8532 17.4403C26.932 17.4668 26.9583 17.5198 26.9845 17.5994C27.0108 17.6789 26.9845 17.7319 26.9583 17.8114C26.932 17.8909 26.8795 17.9175 26.827 17.944C26.7744 17.9705 26.6956 17.944 26.6431 17.9175C26.5381 17.8644 26.4593 17.8379 26.3542 17.8379C26.2754 17.8114 26.1704 17.8114 26.0391 17.8114C25.934 17.8114 25.8552 17.8114 25.7764 17.8379C25.6976 17.8644 25.6451 17.8909 25.5926 17.9175C25.5401 17.944 25.5138 17.997 25.4875 18.05C25.4613 18.103 25.4613 18.156 25.4613 18.1825V18.2091C25.4613 18.2621 25.4613 18.3151 25.4875 18.3681C25.5138 18.4211 25.5401 18.4476 25.5926 18.4741C25.6451 18.5006 25.7239 18.5537 25.8027 18.5802C25.8815 18.6067 26.0128 18.6332 26.1441 18.6597C26.5118 18.7392 26.8007 18.8453 26.9583 19.0043C27.1159 19.1634 27.1946 19.3489 27.1946 19.614V19.667C27.1946 19.9851 27.0896 20.2237 26.8795 20.3828C26.6694 20.5418 26.3805 20.6213 25.9865 20.6213C25.8027 20.6213 25.6188 20.5948 25.435 20.5418C25.2512 20.4888 25.1198 20.4358 24.9885 20.3563C24.9097 20.3032 24.8835 20.2502 24.8572 20.1707C24.8572 20.0912 24.8572 20.0381 24.9097 19.9586C24.9623 19.8791 25.0148 19.8526 25.0673 19.8261C25.1198 19.7996 25.1986 19.8261 25.2512 19.8526C25.3562 19.9056 25.4613 19.9586 25.5926 19.9851C25.7239 20.0116 25.8552 20.0381 25.9865 20.0381C26.1966 20.0381 26.3542 20.0116 26.433 19.9321C26.5381 19.8526 26.5643 19.7731 26.5643 19.6405V19.6935C26.5643 19.561 26.5118 19.455 26.4067 19.4019C26.3017 19.3224 26.1441 19.2694 25.934 19.2164C25.7502 19.1899 25.5663 19.1369 25.435 19.0838C25.3037 19.0308 25.1724 18.9778 25.0936 18.8983C24.9885 18.8188 24.936 18.7392 24.8835 18.6332C24.831 18.5272 24.8047 18.3946 24.8047 18.2356V18.2091C24.8047 18.0765 24.831 17.9705 24.8835 17.8379C24.936 17.7319 25.0148 17.6259 25.1198 17.5463C25.2249 17.4668 25.33 17.3873 25.4875 17.3343C25.6976 17.3078 25.8552 17.2812 26.0391 17.2812Z" fill="#737D8C"/>
<path d="M29.7681 17.2816C29.8469 17.2816 29.8994 17.3081 29.9782 17.3346C30.057 17.3876 30.0833 17.4406 30.1095 17.5467L30.7136 19.6938L31.2914 17.4672C31.3177 17.3876 31.3439 17.3346 31.4227 17.3081C31.4752 17.2816 31.554 17.2816 31.6328 17.2816C31.7116 17.3081 31.7642 17.3346 31.8167 17.3876C31.8429 17.4406 31.8692 17.5202 31.8429 17.5997L31.0813 20.3035C31.055 20.4096 31.0025 20.4891 30.95 20.5156C30.8712 20.5686 30.8186 20.5686 30.7399 20.5686C30.6611 20.5686 30.6085 20.5421 30.5297 20.5156C30.451 20.4626 30.4247 20.4096 30.3984 20.3035L29.7944 18.0503L29.164 20.3035C29.1378 20.4096 29.0852 20.4891 29.0327 20.5156C28.9539 20.5686 28.9014 20.5686 28.8226 20.5686C28.7438 20.5686 28.6913 20.5421 28.6125 20.5156C28.5337 20.4626 28.5074 20.4096 28.4812 20.3035L27.7458 17.6262C27.7195 17.5467 27.7195 17.4672 27.772 17.4141C27.7983 17.3611 27.8771 17.3081 27.9559 17.2816C28.0347 17.2551 28.1135 17.2551 28.166 17.2816C28.2448 17.3081 28.271 17.3611 28.2973 17.4672L28.8489 19.7203L29.4529 17.5467C29.4792 17.4406 29.5317 17.3876 29.5842 17.3346C29.6105 17.3081 29.6893 17.2816 29.7681 17.2816Z" fill="#737D8C"/>
<path d="M33.5218 17.3078C33.6006 17.3078 33.6531 17.3078 33.7056 17.3343C33.7582 17.3343 33.7844 17.3608 33.8369 17.3873C33.8632 17.4138 33.9157 17.4668 33.942 17.5198C33.9683 17.5728 34.0208 17.6524 34.0471 17.7584L34.6774 19.3224L35.2814 17.7584C35.3077 17.6524 35.3602 17.5728 35.3865 17.5198C35.4128 17.4668 35.4653 17.4138 35.4916 17.3873C35.5441 17.3608 35.5703 17.3343 35.6229 17.3078C35.6754 17.3078 35.7279 17.2812 35.8067 17.2812H35.9118C36.0694 17.2812 36.1481 17.3078 36.2269 17.3608C36.3057 17.4138 36.3057 17.5198 36.3057 17.6524V20.3296C36.3057 20.4092 36.2795 20.4622 36.2269 20.5152C36.1744 20.5417 36.0956 20.5682 36.0431 20.5682C35.9643 20.5682 35.9118 20.5417 35.8592 20.5152C35.8067 20.4887 35.7805 20.4092 35.7805 20.3296V17.8379C35.7542 17.9439 35.7279 18.05 35.7017 18.1295C35.6754 18.209 35.6491 18.262 35.6229 18.3416L35.0188 19.826C34.9925 19.932 34.94 19.985 34.8875 20.0116C34.835 20.0381 34.7824 20.0646 34.7036 20.0646C34.5986 20.0646 34.5461 20.0381 34.4935 20.0116C34.441 19.985 34.4147 19.9055 34.3622 19.7995L33.7844 18.3151C33.7582 18.262 33.7319 18.1825 33.7056 18.103C33.6794 18.0235 33.6531 17.9174 33.6268 17.8114V20.3562C33.6268 20.4357 33.6006 20.4887 33.548 20.5417C33.4955 20.5682 33.4167 20.5947 33.3642 20.5947C33.2854 20.5947 33.2329 20.5682 33.1804 20.5417C33.1278 20.5152 33.1016 20.4357 33.1016 20.3562V17.7054C33.1016 17.5728 33.1278 17.4668 33.1804 17.4138C33.2329 17.3608 33.3379 17.3343 33.4955 17.3343H33.5218V17.3078Z" fill="#737D8C"/>
<path d="M38.3045 17.2812C38.751 17.2812 39.0662 17.4138 39.2763 17.6789C39.4864 17.944 39.5915 18.3416 39.5915 18.8452V19.1103C39.5915 19.614 39.4864 20.0116 39.2763 20.2767C39.0662 20.5418 38.7248 20.6743 38.3045 20.6743C37.858 20.6743 37.5429 20.5418 37.3328 20.2767C37.1226 20.0116 37.0176 19.614 37.0176 19.1103V18.8452C37.0176 18.3416 37.1226 17.944 37.3328 17.6789C37.5429 17.4138 37.8843 17.2812 38.3045 17.2812ZM38.3045 17.5728C37.9631 17.5728 37.7267 17.6789 37.5691 17.8909C37.4115 18.103 37.3328 18.4211 37.3328 18.8718V19.0573C37.3328 19.5079 37.4115 19.8261 37.5691 20.0381C37.7267 20.2502 37.9631 20.3562 38.3045 20.3562C38.646 20.3562 38.8824 20.2502 39.0399 20.0381C39.1975 19.8261 39.2763 19.5079 39.2763 19.0573V18.8718C39.2763 18.4211 39.1975 18.103 39.0399 17.8909C38.9086 17.6789 38.646 17.5728 38.3045 17.5728Z" fill="#737D8C"/>
<path d="M41.5104 17.3359C41.8519 17.3359 42.1145 17.389 42.2721 17.5215C42.4297 17.654 42.5085 17.8661 42.5085 18.1312V18.2107C42.5085 18.2902 42.5085 18.3432 42.4822 18.4227C42.4559 18.5023 42.4297 18.5553 42.4034 18.6083C42.3509 18.6613 42.2984 18.7143 42.2458 18.7673C42.167 18.8203 42.0882 18.8469 42.0095 18.8734C42.2196 18.8999 42.3772 18.9794 42.5085 19.0854C42.6398 19.218 42.6923 19.377 42.6923 19.6156V19.6951C42.6923 19.9602 42.6135 20.1722 42.4559 20.3313C42.2984 20.4903 42.0357 20.5698 41.6943 20.5698H40.7488C40.6437 20.5698 40.5649 20.5433 40.5124 20.5168C40.4599 20.4638 40.4336 20.3843 40.4336 20.2782V17.6275C40.4336 17.5215 40.4599 17.442 40.5124 17.389C40.5649 17.3359 40.6437 17.3359 40.7488 17.3359H41.5104ZM41.4579 18.7408C41.6943 18.7408 41.8781 18.6878 42.0095 18.6083C42.1408 18.5288 42.1933 18.3962 42.1933 18.1842V18.1312C42.1933 17.9456 42.1408 17.8131 42.0095 17.7335C41.9044 17.654 41.6943 17.601 41.4316 17.601H40.7225V18.7143H41.4579V18.7408ZM41.563 20.3048C41.8256 20.3048 42.0095 20.2517 42.1408 20.1722C42.2721 20.0927 42.3246 19.9336 42.3246 19.6951V19.6156C42.3246 19.5095 42.2984 19.43 42.2721 19.3505C42.2458 19.271 42.1933 19.218 42.1145 19.1649C42.0357 19.1119 41.9569 19.0854 41.8519 19.0589C41.7468 19.0324 41.6155 19.0324 41.4579 19.0324H40.7225V20.3048H41.563Z" fill="#737D8C"/>
<path d="M43.5033 17.3066C43.5558 17.3066 43.5821 17.3066 43.6346 17.3331C43.6609 17.3597 43.6871 17.3862 43.6871 17.4392V20.461C43.6871 20.514 43.6609 20.5405 43.6346 20.567C43.6083 20.5935 43.5558 20.5935 43.5033 20.5935C43.4508 20.5935 43.4245 20.5935 43.3982 20.567C43.372 20.5405 43.3457 20.514 43.3457 20.461V17.4392C43.3457 17.3862 43.372 17.3597 43.3982 17.3331C43.4245 17.3066 43.477 17.3066 43.5033 17.3066Z" fill="#737D8C"/>
<path d="M44.7123 17.3066C44.7648 17.3066 44.7911 17.3066 44.8436 17.3331C44.8698 17.3597 44.8961 17.3862 44.8961 17.4392V20.302H46.4193C46.4719 20.302 46.4981 20.3285 46.5244 20.355C46.5507 20.3815 46.5507 20.4081 46.5507 20.4611C46.5507 20.5141 46.5507 20.5406 46.5244 20.5671C46.4981 20.5936 46.4719 20.6201 46.4193 20.6201H44.8698C44.7648 20.6201 44.686 20.5936 44.6335 20.5671C44.581 20.5141 44.5547 20.4346 44.5547 20.3285V17.4392C44.5547 17.3862 44.5809 17.3597 44.6072 17.3331C44.6335 17.3066 44.686 17.3066 44.7123 17.3066Z" fill="#737D8C"/>
<path d="M47.2865 17.3066C47.339 17.3066 47.3653 17.3066 47.4178 17.3331C47.4441 17.3597 47.4703 17.3862 47.4703 17.4392V20.461C47.4703 20.514 47.4441 20.5405 47.4178 20.567C47.3915 20.5935 47.339 20.5935 47.2865 20.5935C47.234 20.5935 47.2077 20.5935 47.1814 20.567C47.1552 20.5405 47.1289 20.514 47.1289 20.461V17.4392C47.1289 17.3862 47.1552 17.3597 47.1814 17.3331C47.2077 17.3066 47.234 17.3066 47.2865 17.3066Z" fill="#737D8C"/>
<path d="M50.4631 17.3597C50.4894 17.3862 50.4894 17.4127 50.4894 17.4657C50.4894 17.5187 50.4894 17.5452 50.4631 17.5717C50.4369 17.5982 50.4106 17.6247 50.3843 17.6247H49.4388V20.4876C49.4388 20.5406 49.4126 20.5671 49.3863 20.5936C49.36 20.6201 49.3075 20.6201 49.255 20.6201C49.2025 20.6201 49.1762 20.6201 49.1499 20.5936C49.1237 20.5671 49.0974 20.5406 49.0974 20.4876V17.6247H48.1519C48.0994 17.6247 48.0731 17.5982 48.0731 17.5717C48.0469 17.5452 48.0469 17.5187 48.0469 17.4657C48.0469 17.4127 48.0469 17.3862 48.0731 17.3597C48.0994 17.3331 48.1257 17.3066 48.1519 17.3066H50.3843C50.4106 17.3331 50.4369 17.3331 50.4631 17.3597Z" fill="#737D8C"/>
<path d="M53.1421 17.3331C53.1946 17.3597 53.2209 17.3862 53.2209 17.4127C53.2471 17.4392 53.2209 17.4922 53.1946 17.5452L52.1966 19.2682V20.4876C52.1966 20.5406 52.1704 20.5671 52.1441 20.5936C52.1178 20.6201 52.0653 20.6201 52.0128 20.6201C51.9603 20.6201 51.934 20.6201 51.9077 20.5936C51.8815 20.5671 51.8552 20.5406 51.8552 20.4876V19.2682L50.8309 17.5452C50.8047 17.4922 50.8047 17.4657 50.8047 17.4127C50.8047 17.3862 50.8309 17.3331 50.8835 17.3331C50.9097 17.3066 50.9623 17.3066 51.0148 17.3066C51.0673 17.3066 51.0936 17.3331 51.1198 17.3862L52.039 18.9501L52.932 17.3862C52.9582 17.3331 52.9845 17.3066 53.037 17.3066C53.0896 17.3066 53.0896 17.3066 53.1421 17.3331Z" fill="#737D8C"/>
</svg>
