<svg width="356" height="56" viewBox="0 0 356 56" fill="none" xmlns="http://www.w3.org/2000/svg">
<path d="M183.545 25.5469H180.605V37.3776H183.545V25.5469Z" fill="#737D8C"/>
<path d="M177.666 34.4249H168.418L178.585 16.668L181.129 18.1441L173.507 31.4618H177.666V34.4249Z" fill="#737D8C"/>
<path d="M201.155 34.4258H186.477V37.3889H201.155V34.4258Z" fill="#737D8C"/>
<path d="M200.063 23.176C200.063 21.3766 199.336 19.7496 198.171 18.5751C197.005 17.4007 195.38 16.668 193.606 16.668C191.831 16.668 190.206 17.4007 189.041 18.5751C187.875 19.7496 187.148 21.3766 187.148 23.176H190.088C190.088 22.1955 190.484 21.3119 191.125 20.6654C191.767 20.0189 192.644 19.6203 193.616 19.6203C194.589 19.6203 195.466 20.0189 196.107 20.6654C196.749 21.3119 197.144 22.1955 197.144 23.176C197.144 23.6716 197.059 24.1349 196.813 24.609C196.535 25.1478 195.936 25.8374 195.338 26.3869L189.746 31.4618H194.13L197.251 28.628C198.256 27.723 199.112 26.6347 199.475 25.8589C199.892 24.9754 200.063 24.1565 200.063 23.176Z" fill="#737D8C"/>
<path d="M211.714 25.2433C208.956 25.2433 206.721 27.4952 206.721 30.2751C206.721 33.055 208.966 35.307 211.714 35.307C214.472 35.307 216.706 33.055 216.706 30.2751C216.706 27.4952 214.472 25.2433 211.714 25.2433ZM216.621 35.6195C216.118 36.1474 215.52 36.6107 214.857 36.934C213.905 37.4081 212.826 37.6667 211.725 37.6667C207.673 37.6667 204.391 34.3588 204.391 30.2644C204.391 26.1699 207.673 22.8728 211.725 22.8728C212.826 22.8728 213.905 23.1314 214.857 23.6055C215.531 23.9395 216.129 24.3921 216.632 24.9308V18.4336H218.984V37.365H216.632L216.621 35.6195Z" fill="#737D8C"/>
<path d="M235.703 30.2744C235.703 34.358 232.421 37.6659 228.369 37.6659C224.317 37.6659 221.035 34.358 221.035 30.2744C221.035 26.1907 224.317 22.8828 228.369 22.8828C232.421 22.8828 235.703 26.1907 235.703 30.2744ZM228.358 25.2425C225.6 25.2425 223.366 27.4944 223.366 30.2744C223.366 33.0543 225.6 35.3062 228.358 35.3062C231.117 35.3062 233.351 33.0543 233.351 30.2744C233.351 27.4944 231.117 25.2425 228.358 25.2425Z" fill="#737D8C"/>
<path d="M246.418 25.5459H242.014V37.3767H239.673V25.5459H236.145V23.1755H239.673V18.4453H242.014V23.1755H246.418V25.5459Z" fill="#737D8C"/>
<path d="M306.979 35.4703C306.38 35.4703 305.782 35.1215 305.529 34.5191L299.321 20.9815C298.943 20.1572 299.289 19.206 300.109 18.8256C300.897 18.4451 301.842 18.7939 302.22 19.6182L308.429 33.1876C308.807 34.0119 308.461 34.963 307.641 35.3435C307.452 35.4069 307.2 35.4703 306.979 35.4703Z" fill="#737D8C"/>
<path d="M315.202 35.4703C314.603 35.4703 314.005 35.1215 313.752 34.5191L307.512 20.9815C307.134 20.1572 307.481 19.206 308.3 18.8256C309.12 18.4451 310.065 18.7939 310.443 19.6182L316.652 33.1876C317.03 34.0119 316.683 34.963 315.864 35.3435C315.643 35.4069 315.423 35.4703 315.202 35.4703Z" fill="#737D8C"/>
<path d="M321.444 18.668C320.845 18.668 320.246 19.0167 319.994 19.6191L313.786 33.1885C313.407 34.0128 313.754 34.9639 314.574 35.3444C315.393 35.7248 316.338 35.3761 316.717 34.5518L322.925 20.9824C323.304 20.1581 322.957 19.2069 322.137 18.8265C321.917 18.7314 321.665 18.668 321.444 18.668Z" fill="#737D8C"/>
<path d="M329.671 18.668C329.072 18.668 328.473 19.0167 328.221 19.6191L322.012 33.1885C321.634 34.0128 321.981 34.9639 322.8 35.3444C323.62 35.7248 324.565 35.3761 324.943 34.5518L331.152 20.9824C331.53 20.1581 331.183 19.2069 330.364 18.8265C330.112 18.7314 329.891 18.668 329.671 18.668Z" fill="#737D8C"/>
<path d="M337.862 18.668C337.263 18.668 336.664 19.0167 336.412 19.6191L330.204 33.1885C329.825 34.0128 330.172 34.9639 330.991 35.3444C331.811 35.7248 332.756 35.3761 333.135 34.5518L339.343 20.9824C339.722 20.1581 339.375 19.2069 338.555 18.8265C338.335 18.7314 338.083 18.668 337.862 18.668Z" fill="#737D8C"/>
<path d="M344.136 35.4703C343.537 35.4703 342.938 35.1215 342.686 34.5191L336.446 20.9815C336.068 20.1572 336.414 19.206 337.234 18.8256C338.053 18.4451 338.999 18.7939 339.377 19.6182L345.586 33.1876C345.964 34.0119 345.617 34.963 344.798 35.3435C344.577 35.4069 344.356 35.4703 344.136 35.4703Z" fill="#737D8C"/>
<path d="M298.28 29.0669C297.712 27.0062 295.727 25.4527 293.584 25.4527H292.26C291.504 25.4527 290.558 25.4527 289.644 25.4527C288.005 25.4527 286.997 25.4527 286.587 25.4527C285.736 25.4527 284.948 24.6601 284.917 23.7723C284.885 23.2651 285.074 22.7895 285.421 22.4091C285.768 22.0603 286.24 21.8701 286.745 21.8701H291.283C292.764 21.8701 294.151 21.8701 294.907 21.8701C295.317 21.8701 295.727 21.7116 296.042 21.3945C296.326 21.0775 296.515 20.697 296.515 20.2532C296.515 19.3655 295.79 18.668 294.939 18.668H293.962H289.234C287.848 18.668 287.091 18.668 286.619 18.668C286.429 18.668 286.24 18.668 286.051 18.7314C284.759 18.9216 283.751 19.4606 282.963 20.38C281.986 21.5213 281.576 22.8846 281.797 24.3747C281.954 25.6429 282.553 26.6891 283.53 27.5134C284.381 28.2426 285.358 28.6231 286.461 28.6548C286.745 28.6548 287.06 28.6548 287.343 28.6548C287.533 28.6548 287.722 28.6548 287.911 28.6548C288.1 28.6548 288.636 28.6548 289.329 28.6548C289.959 28.6548 290.716 28.6548 291.409 28.6548C292.701 28.6548 293.458 28.6548 293.678 28.6865C294.182 28.7182 294.624 29.0035 294.939 29.4157C295.254 29.8278 295.349 30.3668 295.254 30.8424C295.065 31.6984 294.372 32.2373 293.489 32.2373C292.922 32.2373 292.008 32.2373 290.968 32.2373H286.556C285.515 32.2373 284.601 32.2373 284.034 32.2373C283.53 32.2373 283.057 32.4593 282.742 32.8714C282.427 33.2519 282.332 33.7591 282.458 34.2664C282.647 34.9639 283.278 35.4712 284.034 35.4712H289.896C291.314 35.4712 292.575 35.4712 293.3 35.4712H293.332C293.678 35.4712 293.962 35.4395 294.214 35.4078C295.443 35.2175 296.483 34.6786 297.271 33.7274C298.406 32.3959 298.752 30.8107 298.28 29.0669Z" fill="#737D8C"/>
<path d="M312.872 38.6094C313.25 38.6094 313.597 38.6728 313.849 38.7996C313.943 38.8313 313.975 38.8947 314.006 38.9898C314.038 39.0849 314.006 39.1483 313.975 39.2435C313.943 39.3386 313.88 39.3703 313.817 39.402C313.754 39.4337 313.66 39.402 313.597 39.3703C313.471 39.3069 313.376 39.2752 313.25 39.2752C313.156 39.2435 313.029 39.2435 312.872 39.2435C312.746 39.2435 312.651 39.2435 312.557 39.2752C312.462 39.3069 312.399 39.3386 312.336 39.3703C312.273 39.402 312.242 39.4654 312.21 39.5288C312.179 39.5922 312.179 39.6556 312.179 39.6873V39.719C312.179 39.7824 312.179 39.8458 312.21 39.9092C312.242 39.9727 312.273 40.0044 312.336 40.0361C312.399 40.0678 312.494 40.1312 312.588 40.1629C312.683 40.1946 312.84 40.2263 312.998 40.258C313.439 40.3531 313.786 40.4799 313.975 40.6701C314.164 40.8604 314.259 41.0823 314.259 41.3993V41.4627C314.259 41.8432 314.133 42.1285 313.88 42.3188C313.628 42.509 313.282 42.6041 312.809 42.6041C312.588 42.6041 312.368 42.5724 312.147 42.509C311.926 42.4456 311.769 42.3822 311.611 42.2871C311.517 42.2236 311.485 42.1602 311.454 42.0651C311.454 41.97 311.454 41.9066 311.517 41.8115C311.58 41.7164 311.643 41.6847 311.706 41.653C311.769 41.6213 311.863 41.653 311.926 41.6847C312.052 41.7481 312.179 41.8115 312.336 41.8432C312.494 41.8749 312.651 41.9066 312.809 41.9066C313.061 41.9066 313.25 41.8749 313.345 41.7798C313.471 41.6847 313.502 41.5896 313.502 41.431V41.4945C313.502 41.3359 313.439 41.2091 313.313 41.1457C313.187 41.0506 312.998 40.9872 312.746 40.9238C312.525 40.8921 312.305 40.8287 312.147 40.7653C311.989 40.7018 311.832 40.6384 311.737 40.5433C311.611 40.4482 311.548 40.3531 311.485 40.2263C311.422 40.0995 311.391 39.9409 311.391 39.7507V39.719C311.391 39.5605 311.422 39.4337 311.485 39.2752C311.548 39.1483 311.643 39.0215 311.769 38.9264C311.895 38.8313 312.021 38.7362 312.21 38.6728C312.462 38.6411 312.651 38.6094 312.872 38.6094Z" fill="#737D8C"/>
<path d="M317.346 38.6097C317.44 38.6097 317.503 38.6414 317.598 38.6731C317.693 38.7365 317.724 38.7999 317.756 38.9268L318.48 41.4948L319.174 38.8316C319.205 38.7365 319.237 38.6731 319.331 38.6414C319.394 38.6097 319.489 38.6097 319.584 38.6097C319.678 38.6414 319.741 38.6731 319.804 38.7365C319.836 38.7999 319.867 38.8951 319.836 38.9902L318.922 42.224C318.89 42.3508 318.827 42.4459 318.764 42.4776C318.67 42.541 318.607 42.541 318.512 42.541C318.417 42.541 318.354 42.5093 318.26 42.4776C318.165 42.4142 318.134 42.3508 318.102 42.224L317.377 39.5291L316.621 42.224C316.59 42.3508 316.526 42.4459 316.463 42.4776C316.369 42.541 316.306 42.541 316.211 42.541C316.117 42.541 316.054 42.5093 315.959 42.4776C315.865 42.4142 315.833 42.3508 315.802 42.224L314.919 39.0219C314.888 38.9268 314.888 38.8316 314.951 38.7682C314.982 38.7048 315.077 38.6414 315.171 38.6097C315.266 38.578 315.36 38.578 315.423 38.6097C315.518 38.6414 315.549 38.7048 315.581 38.8316L316.243 41.5265L316.968 38.9268C316.999 38.7999 317.062 38.7365 317.125 38.6731C317.157 38.6414 317.251 38.6097 317.346 38.6097Z" fill="#737D8C"/>
<path d="M321.852 38.6411C321.946 38.6411 322.01 38.6411 322.073 38.6728C322.136 38.6728 322.167 38.7045 322.23 38.7362C322.262 38.7679 322.325 38.8313 322.356 38.8947C322.388 38.9581 322.451 39.0532 322.482 39.18L323.239 41.0506L323.964 39.18C323.995 39.0532 324.058 38.9581 324.09 38.8947C324.121 38.8313 324.184 38.7679 324.216 38.7362C324.279 38.7045 324.31 38.6728 324.373 38.6411C324.436 38.6411 324.499 38.6094 324.594 38.6094H324.72C324.909 38.6094 325.004 38.6411 325.098 38.7045C325.193 38.7679 325.193 38.8947 325.193 39.0532V42.2554C325.193 42.3505 325.161 42.4139 325.098 42.4773C325.035 42.509 324.941 42.5407 324.877 42.5407C324.783 42.5407 324.72 42.509 324.657 42.4773C324.594 42.4456 324.562 42.3505 324.562 42.2554V39.2752C324.531 39.402 324.499 39.5288 324.468 39.6239C324.436 39.719 324.405 39.7824 324.373 39.8775L323.648 41.653C323.617 41.7798 323.554 41.8432 323.491 41.8749C323.428 41.9066 323.365 41.9383 323.27 41.9383C323.144 41.9383 323.081 41.9066 323.018 41.8749C322.955 41.8432 322.923 41.7481 322.86 41.6213L322.167 39.8458C322.136 39.7824 322.104 39.6873 322.073 39.5922C322.041 39.4971 322.009 39.3703 321.978 39.2435V42.2871C321.978 42.3822 321.946 42.4456 321.883 42.509C321.82 42.5407 321.726 42.5724 321.663 42.5724C321.568 42.5724 321.505 42.5407 321.442 42.509C321.379 42.4773 321.348 42.3822 321.348 42.2871V39.1166C321.348 38.9581 321.379 38.8313 321.442 38.7679C321.505 38.7045 321.631 38.6728 321.82 38.6728H321.852V38.6411Z" fill="#737D8C"/>
<path d="M327.591 38.6094C328.127 38.6094 328.505 38.7679 328.757 39.0849C329.009 39.402 329.135 39.8775 329.135 40.4799V40.797C329.135 41.3993 329.009 41.8749 328.757 42.1919C328.505 42.509 328.095 42.6675 327.591 42.6675C327.055 42.6675 326.677 42.509 326.425 42.1919C326.173 41.8749 326.047 41.3993 326.047 40.797V40.4799C326.047 39.8775 326.173 39.402 326.425 39.0849C326.677 38.7679 327.087 38.6094 327.591 38.6094ZM327.591 38.9581C327.181 38.9581 326.898 39.0849 326.709 39.3386C326.52 39.5922 326.425 39.9727 326.425 40.5116V40.7336C326.425 41.2725 326.52 41.653 326.709 41.9066C326.898 42.1602 327.181 42.2871 327.591 42.2871C328.001 42.2871 328.285 42.1602 328.474 41.9066C328.663 41.653 328.757 41.2725 328.757 40.7336V40.5116C328.757 39.9727 328.663 39.5922 328.474 39.3386C328.316 39.0849 328.001 38.9581 327.591 38.9581Z" fill="#737D8C"/>
<path d="M331.437 38.6738C331.846 38.6738 332.162 38.7372 332.351 38.8958C332.54 39.0543 332.634 39.3079 332.634 39.625V39.7201C332.634 39.8152 332.634 39.8786 332.603 39.9737C332.571 40.0688 332.54 40.1322 332.508 40.1956C332.445 40.259 332.382 40.3224 332.319 40.3859C332.225 40.4493 332.13 40.481 332.036 40.5127C332.288 40.5444 332.477 40.6395 332.634 40.7663C332.792 40.9248 332.855 41.115 332.855 41.4004V41.4955C332.855 41.8125 332.76 42.0662 332.571 42.2564C332.382 42.4466 332.067 42.5417 331.657 42.5417H330.523C330.397 42.5417 330.302 42.51 330.239 42.4783C330.176 42.4149 330.145 42.3198 330.145 42.193V39.0226C330.145 38.8958 330.176 38.8006 330.239 38.7372C330.302 38.6738 330.397 38.6738 330.523 38.6738H331.437ZM331.374 40.3541C331.657 40.3541 331.878 40.2907 332.036 40.1956C332.193 40.1005 332.256 39.942 332.256 39.6884V39.625C332.256 39.403 332.193 39.2445 332.036 39.1494C331.909 39.0543 331.657 38.9909 331.342 38.9909H330.491V40.3224H331.374V40.3541ZM331.5 42.2247C331.815 42.2247 332.036 42.1613 332.193 42.0662C332.351 41.9711 332.414 41.7808 332.414 41.4955V41.4004C332.414 41.2736 332.382 41.1785 332.351 41.0833C332.319 40.9882 332.256 40.9248 332.162 40.8614C332.067 40.798 331.972 40.7663 331.846 40.7346C331.72 40.7029 331.563 40.7029 331.374 40.7029H330.491V42.2247H331.5Z" fill="#737D8C"/>
<path d="M333.83 38.6406C333.893 38.6406 333.924 38.6406 333.987 38.6723C334.019 38.704 334.05 38.7357 334.05 38.7991V42.4134C334.05 42.4768 334.019 42.5085 333.987 42.5402C333.956 42.5719 333.893 42.5719 333.83 42.5719C333.767 42.5719 333.735 42.5719 333.704 42.5402C333.672 42.5085 333.641 42.4768 333.641 42.4134V38.7991C333.641 38.7357 333.672 38.704 333.704 38.6723C333.735 38.6406 333.798 38.6406 333.83 38.6406Z" fill="#737D8C"/>
<path d="M335.279 38.6406C335.342 38.6406 335.373 38.6406 335.437 38.6723C335.468 38.704 335.5 38.7357 335.5 38.7991V42.2232H337.328C337.391 42.2232 337.422 42.2549 337.454 42.2866C337.485 42.3183 337.485 42.35 337.485 42.4134C337.485 42.4768 337.485 42.5085 337.454 42.5402C337.422 42.5719 337.391 42.6036 337.328 42.6036H335.468C335.342 42.6036 335.247 42.5719 335.184 42.5402C335.121 42.4768 335.09 42.3817 335.09 42.2549V38.7991C335.09 38.7357 335.121 38.704 335.153 38.6723C335.184 38.6406 335.247 38.6406 335.279 38.6406Z" fill="#737D8C"/>
<path d="M338.369 38.6406C338.432 38.6406 338.463 38.6406 338.526 38.6723C338.558 38.704 338.589 38.7357 338.589 38.7991V42.4134C338.589 42.4768 338.558 42.5085 338.526 42.5402C338.495 42.5719 338.432 42.5719 338.369 42.5719C338.306 42.5719 338.274 42.5719 338.243 42.5402C338.211 42.5085 338.18 42.4768 338.18 42.4134V38.7991C338.18 38.7357 338.211 38.704 338.243 38.6723C338.274 38.6406 338.306 38.6406 338.369 38.6406Z" fill="#737D8C"/>
<path d="M342.181 38.704C342.212 38.7357 342.212 38.7674 342.212 38.8308C342.212 38.8943 342.212 38.926 342.181 38.9577C342.149 38.9894 342.118 39.0211 342.086 39.0211H340.952V42.4451C340.952 42.5085 340.92 42.5402 340.889 42.5719C340.857 42.6036 340.794 42.6036 340.731 42.6036C340.668 42.6036 340.636 42.6036 340.605 42.5719C340.573 42.5402 340.542 42.5085 340.542 42.4451V39.0211H339.407C339.344 39.0211 339.313 38.9894 339.313 38.9577C339.281 38.926 339.281 38.8943 339.281 38.8308C339.281 38.7674 339.281 38.7357 339.313 38.704C339.344 38.6723 339.376 38.6406 339.407 38.6406H342.086C342.118 38.6723 342.149 38.6723 342.181 38.704Z" fill="#737D8C"/>
<path d="M345.395 38.6723C345.458 38.704 345.489 38.7357 345.489 38.7674C345.521 38.7991 345.489 38.8626 345.458 38.926L344.26 40.9867V42.4451C344.26 42.5085 344.229 42.5402 344.197 42.5719C344.166 42.6036 344.103 42.6036 344.04 42.6036C343.977 42.6036 343.945 42.6036 343.914 42.5719C343.882 42.5402 343.85 42.5085 343.85 42.4451V40.9867L342.621 38.926C342.59 38.8626 342.59 38.8309 342.59 38.7674C342.59 38.7357 342.621 38.6723 342.684 38.6723C342.716 38.6406 342.779 38.6406 342.842 38.6406C342.905 38.6406 342.937 38.6723 342.968 38.7357L344.071 40.6063L345.143 38.7357C345.174 38.6723 345.206 38.6406 345.269 38.6406C345.332 38.6406 345.332 38.6406 345.395 38.6723Z" fill="#737D8C"/>
<path d="M16.5566 13.4725C16.6166 13.5329 16.6767 13.6536 16.6767 13.714C16.7367 13.9555 16.9768 14.1367 17.0369 14.3782C17.0369 14.4386 17.1569 14.4989 17.217 14.4989C17.277 14.5593 17.217 14.6801 17.337 14.8008C17.3971 14.8612 17.337 14.9216 17.337 14.982C17.3971 15.0423 17.4571 15.1027 17.5171 15.1027C17.9974 15.8876 18.0574 16.8537 17.4571 17.699C17.337 17.8197 17.277 17.9405 17.217 18.0612C17.1569 18.1216 17.0969 18.182 17.0369 18.182C17.0369 18.2424 17.0969 18.3027 17.1569 18.3631C16.9168 18.4235 16.8568 18.665 16.6767 18.7858C16.6166 18.7858 16.4966 18.7858 16.4966 18.7858C16.3765 18.9065 16.1964 18.9669 16.0763 19.0877C16.0163 19.148 16.0163 19.2688 16.0763 19.3292C15.8362 19.5103 15.476 19.6311 15.1158 19.6311C15.0558 19.6311 15.0558 19.7518 14.9958 19.7518C14.7556 19.7518 14.3954 19.7518 14.1553 19.8122C14.0352 19.7518 13.9752 19.6914 13.8551 19.6914C13.7351 19.6914 13.675 19.6914 13.555 19.6914C13.3749 19.5707 13.1948 19.5707 13.0147 19.5103C12.8946 19.4499 12.7145 19.5707 12.5945 19.5103C12.2343 19.2084 11.8741 18.9065 11.694 18.5443C11.5739 18.3631 11.3338 18.3027 11.2737 18.0612C11.2737 18.0009 11.3338 17.8197 11.2137 17.8197C10.9736 17.7593 11.0936 17.6386 11.0936 17.5178C11.0336 17.3971 11.0336 17.3367 10.9135 17.2159C10.8535 17.0952 10.9135 16.9141 10.8535 16.7329C10.8535 16.6725 10.9135 16.6725 10.9135 16.6122C10.8535 16.3707 10.9736 16.0688 10.9135 15.8876C10.9135 15.7669 10.9135 15.5857 10.9736 15.465C11.0936 15.2235 11.2137 14.8612 11.4538 14.6197C11.4538 14.5593 11.4538 14.4989 11.4538 14.4386C11.5139 14.3782 11.5739 14.3782 11.5739 14.3178C11.6339 14.0763 11.754 13.8952 11.8741 13.714C11.9341 13.5329 12.2343 13.2914 12.4744 13.0499C12.5945 12.9291 12.8346 12.8084 12.9547 12.5668C13.0147 12.5065 13.1948 12.5668 13.1948 12.5668C13.3148 12.4461 13.555 12.4461 13.675 12.3253C13.7951 12.2046 13.7951 12.4461 13.9152 12.3857C14.0352 12.3857 14.0953 12.3253 14.1553 12.265C14.3354 12.2046 14.4555 12.3253 14.6356 12.3253C14.8157 12.3253 14.9357 12.3253 15.1158 12.4461C15.3559 12.5668 15.8362 12.5668 15.9563 12.8084C16.1964 13.1102 16.4365 13.231 16.5566 13.4725Z" fill="#737D8C"/>
<path d="M25.3781 16.7926C25.3781 16.6718 25.3781 16.6114 25.318 16.4303C25.318 16.3095 25.3781 16.1284 25.3781 15.9473C25.3781 15.8869 25.258 15.8265 25.318 15.8265C25.3781 15.5246 25.4381 15.2831 25.3781 14.9812C25.3781 14.8605 25.318 14.8605 25.318 14.8001C25.318 14.7397 25.318 14.6793 25.3781 14.619C25.3781 14.3774 25.318 14.1963 25.258 13.9548C25.258 13.8944 25.198 13.834 25.1379 13.6529C25.1379 13.5925 25.0179 13.5322 25.0779 13.5322C25.1379 13.1699 24.9578 12.868 24.8978 12.5057C24.7177 12.0831 24.3575 11.8416 24.2375 11.4793C24.2375 11.4189 24.3575 11.4793 24.4176 11.4793C24.7177 11.7812 25.0179 12.0831 25.1379 12.5057C25.198 12.6265 25.1379 12.7472 25.198 12.868C25.4381 13.1095 25.4981 13.4718 25.5582 13.8944C25.5582 13.9548 25.6182 13.8944 25.6782 13.9548C25.6782 14.0152 25.6782 14.0756 25.6782 14.1359C25.8583 14.3774 25.7383 14.5586 25.7983 14.8001C25.7983 14.8605 25.8583 14.9208 25.8583 14.9812C25.8583 15.0416 25.7383 15.102 25.7383 15.1624C25.9184 15.3435 25.9784 15.6454 25.9184 15.8869C26.0985 15.9473 26.0384 16.1888 26.0384 16.3699C26.0384 16.4303 26.0985 16.4303 26.1585 16.4303C26.2185 16.3699 26.2786 16.3095 26.2786 16.1888C26.2786 15.8265 26.3386 15.585 26.2786 15.2227C26.2185 15.102 26.2185 14.9812 26.2786 14.8605C26.2185 14.8605 26.1585 14.7397 26.1585 14.6793C26.0384 14.1359 25.9784 13.5322 25.7983 12.9888L25.8583 12.9284C25.7983 12.4454 25.4381 12.0227 25.258 11.4793C25.258 11.4189 25.0779 11.2982 25.0179 11.1774V11.117C25.198 11.117 25.318 11.2982 25.4381 11.4793C25.6182 11.7812 25.8583 12.0831 25.9184 12.385C26.0384 12.7472 26.2185 12.9888 26.2786 13.2906C26.3386 13.4718 26.4587 13.5925 26.5187 13.7133C26.5787 13.834 26.5187 13.9548 26.5787 14.0756C26.6388 14.3774 26.6988 14.6793 26.7588 14.9812C26.8189 15.2227 26.8789 15.4643 26.8189 15.6454C26.6988 16.0077 26.9389 16.3699 27.059 16.7322C27.119 16.8529 27.059 17.0341 26.999 17.1548C26.999 17.2152 27.059 17.2756 27.059 17.2756C26.999 17.4567 27.059 17.5775 26.999 17.7586C26.9389 17.819 27.059 17.8794 26.999 17.9397C26.9389 18.0001 26.9389 17.9397 26.8789 18.0001C26.8189 18.1209 26.8789 18.2416 26.8789 18.3624C26.7588 18.6039 26.8189 18.9058 26.5787 19.0869C26.5187 19.0869 26.5187 19.1473 26.4587 19.2077C26.5187 19.2077 26.5187 19.2681 26.5787 19.3284C26.5187 19.3888 26.5187 19.3284 26.4587 19.3888C26.4587 19.4492 26.5787 19.57 26.6388 19.6303C26.5787 19.9322 26.3386 20.2341 26.3386 20.5964C26.3386 20.6568 26.2786 20.7775 26.2786 20.8983C26.2185 21.0794 26.0384 21.2605 25.9784 21.4417C25.9784 21.502 25.7983 21.502 25.7983 21.6228C25.6782 21.7436 25.7383 21.9247 25.6182 22.0454C25.5582 22.1058 25.4381 22.1058 25.3781 22.1662C25.258 22.287 25.318 22.4681 25.198 22.5888C25.0779 22.77 24.9578 22.9511 24.8378 23.1926C24.7177 23.4341 24.4776 23.736 24.2975 23.9172C24.2375 23.9172 24.1774 23.9172 24.1174 23.9775C23.9973 24.2191 23.8773 24.4002 23.6371 24.5209C23.5771 24.5209 23.5171 24.7021 23.5171 24.7021C23.337 24.8228 23.2169 25.004 23.0368 25.1247C22.9768 25.1247 22.9167 25.1851 22.8567 25.0643C22.5566 25.5474 22.1964 25.9096 21.8362 26.2719C21.6561 26.3927 21.4159 26.3927 21.2959 26.5134C20.8156 26.9361 20.0952 27.4191 20.0352 27.4795C19.9752 27.4795 19.8551 27.6606 19.8551 27.6606C19.735 27.6606 19.7951 27.6606 19.675 27.6606C19.675 27.6606 19.675 27.9021 19.4949 27.9021C19.1347 27.9625 19.0146 28.4455 18.9546 28.6266C18.9546 28.7474 18.8946 28.6266 18.8345 28.687C18.7745 28.7474 18.8345 28.8078 18.7745 28.8078C18.5944 28.9285 18.4743 29.1097 18.2943 29.2908C18.2342 29.3512 18.2342 29.2908 18.1742 29.2908C18.1142 29.3512 17.9341 29.5927 17.874 29.8342C17.6939 30.2568 17.5138 30.5587 17.2737 30.8606C17.2137 30.921 17.3938 31.2229 17.3938 31.2833C17.1536 31.404 17.0336 31.404 16.9735 31.5248C16.9135 31.8267 16.9135 32.1889 16.8535 32.4908C16.7934 32.7927 16.8535 33.0342 16.9135 33.3361C16.9735 33.5776 16.9135 33.8795 16.9135 34.121C16.9135 34.3022 17.0336 34.5437 17.0336 34.7248C17.0336 35.0267 16.9735 34.9663 17.0336 35.2078C17.0336 35.3286 16.9735 35.5097 17.0336 35.5701C17.0336 35.7512 16.9735 35.872 16.9735 36.0531C16.9135 36.1135 16.8535 36.1739 16.8535 36.2343C16.8535 36.7173 16.5533 37.0796 16.1931 37.3814C16.013 37.5022 15.8329 37.6833 15.5928 37.6833C15.4727 37.6833 15.1125 37.9248 14.9925 37.9248C14.6323 38.0456 14.3921 38.0456 14.092 37.9852C13.7318 37.8645 13.4917 37.8041 13.2515 37.4418C13.1315 37.2607 12.8913 37.3211 12.7713 37.0796C12.7713 36.9588 12.5311 36.9588 12.5311 36.8984C12.351 36.7173 12.231 36.5362 12.1109 36.355C11.9908 36.1135 12.1109 35.9324 11.9908 35.6909C11.8708 35.5701 11.8107 35.4494 11.6907 35.2682C11.5106 35.0871 11.7507 34.7852 11.6306 34.6041C11.5706 34.5437 11.4506 34.4833 11.4506 34.3625C11.3905 34.1814 11.3905 33.8795 11.2705 33.6984C11.2104 33.4569 11.2705 32.6116 11.2705 32.3701C11.2705 32.3097 11.1504 32.2493 11.1504 32.1889C11.1504 31.8267 11.2705 31.5248 11.2705 31.1625C11.3305 30.9814 11.2705 30.8002 11.4506 30.6795C11.4506 30.6795 11.3905 30.6191 11.3905 30.5587C11.5106 30.2568 11.5106 30.0757 11.5706 29.7738C11.5706 29.7134 11.6907 29.7134 11.6907 29.6531C11.6306 29.4719 11.6306 29.0493 11.6907 28.8078C11.6907 28.687 11.9308 28.5663 11.9908 28.5059C11.9908 28.4455 11.9308 28.3248 12.0509 28.204C12.0509 28.1436 12.1109 28.204 12.1709 28.1436C12.1709 28.0832 12.1709 28.0229 12.1709 28.0229C12.1709 27.9021 12.4111 27.7814 12.4711 27.6606C12.5912 27.3587 12.7112 27.1776 12.8913 26.9361C12.9514 26.8153 12.9514 26.6945 13.0714 26.5738C13.1315 26.5134 13.1315 26.5738 13.1315 26.5134C13.1315 26.453 13.1315 26.3927 13.1315 26.3323C13.2515 26.2115 13.3716 26.1511 13.3716 26.0304C13.4316 25.8493 13.4917 25.7889 13.6117 25.6681C13.7918 25.5474 13.9719 25.4266 14.092 25.2455C14.212 25.1247 14.2721 25.1851 14.3921 25.0643C14.5122 24.9436 14.5722 24.7021 14.6923 24.5813C14.9324 24.2794 15.1726 24.0983 15.4727 23.9172C15.7129 23.736 15.953 23.6757 16.1931 23.5549C16.4332 23.3738 16.5533 23.0719 16.7334 22.9511C16.8535 22.8304 17.0336 22.8304 17.1536 22.77C17.2737 22.6492 17.3938 22.4681 17.5739 22.4681C17.9941 22.3473 17.6939 22.4681 18.1142 22.287C18.3543 22.1058 18.2342 22.1058 18.5344 21.9247C18.9546 21.6832 19.1947 21.502 19.1947 21.502C19.2548 21.4417 19.2548 21.4417 19.3148 21.3813C19.4349 21.2605 19.9752 20.8379 20.0352 20.8379C20.0952 20.8379 20.2153 20.8983 20.2753 20.8379C20.3354 20.7775 20.2153 20.7171 20.2753 20.5964C20.3954 20.4756 20.5154 20.2945 20.6955 20.1737C20.7556 20.1134 20.8156 20.2341 20.9357 20.1737C20.9957 20.1134 20.9957 20.053 21.0557 20.053C21.1158 19.9926 20.9957 19.8718 21.0557 19.8115C21.1158 19.6907 21.1758 19.57 21.2358 19.57C21.3559 19.5096 21.536 19.4492 21.536 19.3284C21.536 19.1473 21.6561 19.0266 21.7761 18.9058C21.7761 18.8454 21.7761 18.8454 21.7761 18.785C21.8962 18.6643 21.9562 18.6039 22.0763 18.4831C22.1964 18.3624 22.1363 18.1813 22.1964 18.0605C22.3765 17.819 22.5566 17.6982 22.6166 17.3963C22.6166 17.2756 22.4965 17.0945 22.5566 16.9737C22.6166 16.9133 22.7967 16.8529 22.7967 16.7926C22.7967 16.6114 22.7366 16.4303 22.7366 16.2492C22.7366 16.1284 22.9167 16.0077 22.8567 15.8869C22.8567 15.5246 22.8567 15.2227 22.7967 14.8605C22.9167 14.8605 22.9167 14.7397 22.9167 14.6793C22.9167 14.4378 22.7367 14.1963 22.6766 13.8944C22.6766 13.7133 22.7967 13.5925 22.7967 13.4114C22.7967 13.2906 22.6766 13.1095 22.4965 12.9888C22.3765 12.8076 22.4365 12.6265 22.4365 12.4454C22.3765 12.2038 22.2564 12.0831 22.1964 11.7812C22.1964 11.6604 22.0163 11.6604 21.9562 11.5397C21.8962 11.3586 21.8962 11.1774 21.8962 10.9963C21.8962 10.9359 21.7761 10.9359 21.7161 10.8755C21.596 10.634 21.596 10.151 21.2959 10.0302C21.2959 9.8491 21.1758 9.8491 21.1158 9.66797C21.2959 9.66797 21.476 9.72835 21.596 9.96986C21.596 10.0302 21.7161 10.0302 21.7761 10.0302C21.8962 10.151 21.8362 10.3925 21.9562 10.4529C22.0763 10.5736 22.3164 10.5133 22.3164 10.6944C22.3765 10.9359 22.5566 11.0567 22.6166 11.2378C22.6166 11.2982 22.6166 11.3586 22.6766 11.4189C22.7967 11.5397 22.7967 11.6604 22.9167 11.7812C23.1569 12.0227 23.337 12.3246 23.2769 12.6869C23.2169 12.868 23.397 12.8076 23.457 12.868C23.5771 13.1095 23.5171 13.4114 23.7572 13.6529C23.6972 14.0756 23.9373 14.4378 24.0574 14.8001C23.8172 15.1624 23.9373 15.7058 24.1174 16.068C24.1174 16.068 24.2375 16.068 24.2375 16.0077C24.2975 15.8265 24.6577 15.7661 24.5977 15.6454C24.3575 15.4039 24.2375 14.9208 24.2375 14.7397C24.2375 14.3774 24.2975 14.1359 24.2375 13.7737C24.2375 13.7133 24.1774 13.6529 24.1774 13.6529C24.1174 13.4718 24.1174 13.2906 24.1174 13.1095C24.1174 12.9888 24.0574 12.9888 23.9973 12.868C23.9973 12.8076 23.9973 12.7472 23.9973 12.6869C24.0574 12.6869 24.1774 12.7472 24.2375 12.7472C24.2975 12.8076 24.2375 12.9284 24.2975 12.9888C24.4176 13.1699 24.5977 13.2906 24.6577 13.4718C24.6577 13.5322 24.6577 13.5925 24.6577 13.6529C24.6577 13.8944 24.8378 14.1359 24.8978 14.3171C24.8978 14.4378 24.7778 14.619 24.8378 14.8001C25.0179 15.1624 25.0179 15.5246 24.9579 15.8869C24.8978 16.068 25.1379 16.1888 25.0779 16.3095C25.0179 16.4303 25.0779 16.4303 25.0179 16.5511C25.0179 16.6114 24.9578 16.6114 24.8978 16.6718C25.0179 16.9133 24.8378 17.2756 24.7778 17.4567C24.7778 17.5171 24.8978 17.5171 24.9579 17.3963C24.9579 17.336 25.1379 17.336 25.198 17.2756C25.318 17.0945 25.3781 16.9737 25.3781 16.7926ZM26.1585 17.5775C26.1585 17.3963 26.2786 17.2152 26.2185 16.9737C26.1585 16.7322 25.9784 16.9737 25.8583 16.9737C25.9184 17.2152 25.7983 17.4567 25.7383 17.6379C25.6782 17.6982 25.6782 17.9397 25.7383 17.8794C25.9784 18.0605 26.1585 17.8794 26.1585 17.5775ZM25.8583 18.7247C25.9184 18.6643 25.8583 18.5435 25.7983 18.4831C25.6782 18.4228 25.5582 18.5435 25.4981 18.6039C25.4381 18.7247 25.4981 18.9058 25.6182 18.9058C25.6782 18.9058 25.7983 18.785 25.8583 18.7247Z" fill="#737D8C"/>
<path d="M23.6981 11.7818C23.8782 11.9026 23.9982 12.2045 24.1183 12.3856V12.446C23.8181 12.6875 23.638 12.2649 23.518 12.0837C23.3979 11.8422 23.2778 11.6007 23.0977 11.4196C23.0977 11.3592 23.0977 11.3592 23.0977 11.2988C23.0377 11.1781 22.9176 11.0573 23.0377 10.9969C23.0977 10.9365 23.1578 11.0573 23.2778 11.1177C23.3979 11.3592 23.4579 11.6007 23.6981 11.7818Z" fill="#737D8C"/>
<path d="M24.7799 10.6943C24.7799 10.7547 24.7198 10.8151 24.7198 10.8754C24.5998 10.7547 24.4797 10.6339 24.3596 10.4528C24.2996 10.4528 24.2396 10.4528 24.2396 10.3924C24.1795 10.3924 24.2396 10.332 24.2396 10.332C24.3596 10.332 24.4797 10.4528 24.5397 10.5132C24.5998 10.5132 24.5998 10.5132 24.6598 10.5132C24.7198 10.5132 24.7799 10.5735 24.7799 10.6943Z" fill="#737D8C"/>
<path d="M8.15013 18.2413C8.21016 18.2413 8.21016 18.3017 8.27019 18.3621C8.33023 18.4225 8.39026 18.4225 8.45029 18.3621C8.51032 18.3621 8.57036 18.5432 8.63039 18.5432C8.69042 18.6036 8.75045 18.7244 8.87052 18.8451C8.93055 18.9055 8.99058 18.9659 9.05062 18.9659C9.11065 19.0866 9.17068 19.2074 9.29075 19.2678C9.35078 19.3281 9.47084 19.3281 9.53088 19.3281C9.65094 19.3885 9.71097 19.5697 9.771 19.63C9.83104 19.63 9.83104 19.7508 9.83104 19.7508C9.89107 19.8112 9.9511 19.8715 10.0111 19.9319C10.0111 19.9923 10.0111 20.0527 10.0712 20.0527C10.3113 20.415 10.6115 20.6565 10.7916 21.0187C10.7916 21.0187 10.7916 21.0791 10.7916 21.1395C11.0317 21.381 11.1518 21.6829 11.3318 21.9244C11.3919 22.0452 11.4519 22.2263 11.5119 22.347C11.572 22.4074 11.632 22.4678 11.692 22.5282C11.7521 22.6489 11.8721 22.8301 11.8721 23.0112C11.8721 23.0716 11.8121 23.2527 11.692 23.1923C11.572 23.0716 11.572 22.8301 11.3919 22.7093C11.3919 22.6489 11.3318 22.5886 11.3318 22.5282C11.2718 22.4678 11.1518 22.4678 11.1518 22.347C11.1518 22.2263 11.0317 22.1659 10.9717 22.1055C10.8516 21.9244 10.6115 21.8036 10.4314 21.6225C10.3713 21.6225 10.3713 21.6225 10.3113 21.6225C10.2513 21.6829 10.1912 21.8036 10.2513 21.864C10.3713 21.9244 10.4314 22.1055 10.5514 22.1659C10.6115 22.2263 10.6715 22.4678 10.7315 22.5886C10.7916 22.6489 10.8516 22.7093 10.9116 22.7697C10.9717 22.8301 10.9717 22.9508 11.0317 23.0716C11.0317 23.132 10.9717 23.132 10.9717 23.1923C11.0317 23.3131 11.1518 23.2527 11.2118 23.3735C11.2718 23.3131 11.3919 23.3735 11.4519 23.4338C11.3318 23.5546 11.3919 23.615 11.3318 23.6754C11.2118 23.8565 11.4519 23.9772 11.632 24.098C11.7521 24.098 11.692 24.2791 11.8121 24.3395C11.8721 24.4603 11.9922 24.4603 12.1123 24.581C12.1123 24.6414 12.0522 24.7018 12.0522 24.7622C12.0522 24.8829 12.1723 24.8829 12.2323 24.9433C12.2924 25.0037 12.2924 25.0641 12.3524 25.1244C12.2323 25.1244 12.0522 25.0037 11.9922 25.0037C11.9322 25.0037 11.8121 24.8225 11.692 24.8225C11.632 24.8225 11.632 24.8829 11.572 24.8829C11.5119 24.8829 11.4519 24.8829 11.3919 24.8225C11.3318 24.8225 11.1518 24.6414 11.0917 24.6414C11.0317 24.6414 10.9116 24.7622 10.8516 24.7622C10.5514 24.7018 10.5514 24.7018 10.4914 24.6414C10.3713 24.581 10.3113 24.5207 10.1912 24.5207C10.1312 24.4603 10.1312 24.3999 10.0712 24.3999C10.0111 24.3395 9.89107 24.3395 9.83104 24.3395C9.59091 24.2188 9.41081 23.9169 9.23071 23.7961C9.11065 23.7357 8.99058 23.6754 8.87052 23.615C8.81049 23.5546 8.75045 23.4942 8.69042 23.4338C8.45029 23.3735 8.21016 23.1923 7.91 23.0716C7.36971 22.8904 6.88945 23.2527 6.40919 23.4942C6.40919 23.4942 6.34916 23.4942 6.28912 23.4942C6.16906 23.615 6.04899 23.615 5.92893 23.6754C5.80886 23.7961 5.56873 23.7961 5.44867 23.9169C5.38864 23.9169 5.38864 24.0376 5.3286 24.098C5.26857 24.1584 5.14851 24.1584 5.02844 24.2188C4.96841 24.2791 4.96841 24.3395 4.90838 24.3999C4.78831 24.5207 4.66825 24.581 4.48815 24.7018C4.36809 24.7622 3.52763 24.8829 3.40757 24.8829C3.16744 24.8829 3.04737 25.0641 2.68718 25.0641C2.20692 25.0641 1.72666 25.0641 1.30643 24.7622C1.2464 24.7018 1.18637 24.4603 1.12633 24.4603C0.946237 24.3395 0.946237 24.098 0.886204 23.9169C0.946237 23.9169 0.826172 23.9169 0.826172 23.7961C0.886204 23.3131 1.12633 22.8301 1.4265 22.4678C1.48653 22.347 1.66663 22.2867 1.66663 22.1055C1.66663 22.1055 1.96679 21.7433 2.08685 21.5621C2.14689 21.5018 2.08685 21.381 2.08685 21.3206C2.38702 20.8376 2.86727 20.5357 3.22747 20.0527C3.34753 19.9319 3.40757 19.8112 3.52763 19.8112C3.58766 19.8112 3.6477 19.8112 3.70773 19.7508C3.76776 19.5697 3.88783 19.5093 4.00789 19.4489C4.36809 19.2074 4.66825 18.8451 5.08848 18.7847C5.14851 18.7847 5.20854 18.664 5.26857 18.664C5.3286 18.6036 5.44867 18.664 5.5087 18.664C5.80886 18.5432 6.10903 18.2413 6.40919 18.181C6.46922 18.181 6.52925 18.0602 6.52925 18.0602C6.82942 18.0602 7.12958 17.8187 7.36971 18.1206C7.60984 18.0602 7.97003 18.1206 8.15013 18.2413ZM10.2513 21.1999C10.2513 21.1395 10.2513 21.1395 10.2513 21.0791C10.1312 21.0187 10.0712 20.7772 9.9511 20.7772C9.89107 20.7772 9.83104 20.7772 9.83104 20.8376C9.83104 21.0187 9.89107 21.1999 10.0111 21.381C10.0712 21.2602 10.1312 21.2602 10.1912 21.381C10.1912 21.3206 10.2513 21.2602 10.2513 21.1999Z" fill="#737D8C"/>
<path d="M39.8489 30.7409L38.4682 32.19L34.5661 28.3862C34.0258 29.2918 33.4254 30.0768 32.7651 30.6805C32.0447 31.3447 31.3243 31.8277 30.6639 32.2504L29.2832 30.6805C30.0636 30.3183 30.724 29.8352 31.2643 29.3522C31.8046 28.8088 32.2248 28.3258 32.585 27.722C32.9452 27.1786 33.1853 26.5748 33.3654 25.9711C33.5455 25.3673 33.6055 24.8239 33.6055 24.2201V21.5031H35.7667V23.7974C35.7667 24.2201 35.7667 24.7031 35.7067 25.0654C35.6466 25.488 35.5866 25.8503 35.4665 26.2729L39.8489 30.7409ZM44.2913 37.3825H42.2502V27.0579H38.0479V25.0654H42.3102V19.8125H44.3513V37.3825H44.2913Z" fill="#737D8C"/>
<path d="M62.7204 29.7141H55.4565V30.6802H59.0584V35.2085H52.0946V36.0538H59.5387V38.0463H49.9935V33.3368H56.9573V32.5519H49.8734V30.6802H53.3553V29.7141H46.2715V27.782H62.7204V29.7141ZM58.8783 23.4952C58.8783 24.0386 58.7582 24.582 58.5181 25.0047C58.278 25.4877 57.9778 25.85 57.5576 26.2122C57.1374 26.5141 56.6571 26.7556 56.1168 26.9368C55.5765 27.1179 54.9762 27.1783 54.3158 27.1783C53.7155 27.1783 53.1152 27.1179 52.5749 26.9368C52.0346 26.7556 51.5543 26.5141 51.1341 26.2122C50.7139 25.9103 50.4137 25.4877 50.1736 25.065C49.9335 24.582 49.8134 24.099 49.8134 23.4952C49.8134 22.8914 49.9335 22.4084 50.1736 21.9254C50.4137 21.4424 50.7139 21.0801 51.1341 20.7178C51.5543 20.3556 51.9746 20.1141 52.5749 19.9329C53.1152 19.7518 53.7155 19.6914 54.3759 19.6914C54.9762 19.6914 55.5765 19.7518 56.1768 19.9329C56.7171 20.1141 57.1974 20.3556 57.6176 20.7178C58.0378 21.0197 58.338 21.4424 58.5781 21.9254C58.7582 22.4084 58.8783 22.9518 58.8783 23.4952ZM56.7772 23.4952C56.7772 22.8914 56.537 22.4084 56.0568 22.0461C55.5765 21.6839 54.9762 21.5027 54.3158 21.5027C53.6555 21.5027 53.0552 21.6839 52.5749 21.9858C52.0946 22.348 51.8545 22.8311 51.8545 23.4348C51.8545 24.0386 52.0946 24.4613 52.5749 24.8235C53.0552 25.1858 53.5954 25.3066 54.3158 25.3066C54.9762 25.3066 55.5765 25.1254 56.0568 24.8235C56.537 24.6424 56.7772 24.1594 56.7772 23.4952Z" fill="#737D8C"/>
<path d="M79.9494 30.9822H63.5605V29.0501H79.9494V30.9822ZM76.4075 38.0464H74.3664V34.0011H67.0424V32.0086H76.4075V38.0464ZM76.3475 28.0236H67.0424V20.416H76.2274V22.3481H69.0835V23.1934H75.9873V25.1859H69.0835V26.0915H76.3475V28.0236Z" fill="#737D8C"/>
<path d="M89.1968 28.809H81.3926V20.7787H83.4337V23.0731H87.1557V20.7787H89.1968V28.809ZM87.0957 26.8769V25.0656H83.3737V26.8769H87.0957ZM94.9599 38.0468H85.5348V33.2166H92.3785V32.1901H85.4148V30.2581H94.4797V35.0883H87.696V36.1147H94.9599V38.0468ZM95.08 29.7147H93.0389V27.8429H89.7371V25.9108H93.0389V24.5221H89.7371V22.5901H93.0389V19.873H95.08V29.7147Z" fill="#737D8C"/>
<path d="M107.628 30.8015L106.247 32.2505L102.345 28.3863C101.865 29.292 101.264 30.0769 100.544 30.7411C99.8235 31.4052 99.1031 31.8883 98.3827 32.3109L97.002 30.7411C97.7824 30.3184 98.4427 29.8354 98.983 29.3524C99.5233 28.809 99.9435 28.326 100.304 27.7222C100.664 27.1788 100.904 26.575 101.024 26.0316C101.204 25.4278 101.264 24.8844 101.264 24.341V21.5636H103.425V23.9184C103.425 24.341 103.425 24.824 103.365 25.1863C103.305 25.609 103.245 25.9712 103.125 26.3335L107.628 30.8015ZM111.83 37.3827H109.789V19.873H111.83V37.3827Z" fill="#737D8C"/>
<path d="M132.826 17.168V28.418V39.668" stroke="#737D8C" stroke-linecap="round"/>
</svg>
