<svg width="197" height="41" viewBox="0 0 197 41" fill="none" xmlns="http://www.w3.org/2000/svg">
<path d="M0.213379 4.60645V14.3751H25.6799V39.7737H35.4747V4.60645H0.213379Z" fill="#5A46FA"/>
<path d="M60.9412 4.60645H41.3516V14.3751H60.9412V4.60645Z" fill="#5A46FA"/>
<path d="M79.4926 4.60742L52.4233 39.7747H65.2456L85.7257 13.1624L106.206 39.7747H119.028L91.9587 4.60742H79.4926Z" fill="#5A46FA"/>
<path d="M190.057 40.1593C192.761 40.1593 194.954 37.9725 194.954 35.275C194.954 32.5774 192.761 30.3906 190.057 30.3906C187.352 30.3906 185.159 32.5774 185.159 35.275C185.159 37.9725 187.352 40.1593 190.057 40.1593Z" fill="#5A46FA"/>
<path d="M193.172 26.4829L196.111 0.196289H183.971L186.91 26.4829H193.172Z" fill="#5A46FA"/>
<path d="M160.075 4.60742H122.439V39.7747H132.234V32.7294H160.046C167.822 32.7294 174.144 26.4242 174.144 18.6684C174.144 10.9127 167.852 4.60742 160.075 4.60742ZM159.689 13.9617C162.272 13.9617 164.379 16.0634 164.379 18.6388C164.379 21.2142 162.272 23.3159 159.689 23.3159H132.264V13.9617H159.689Z" fill="#5A46FA"/>
</svg>
