<svg width="66" height="19" viewBox="0 0 66 19" fill="none" xmlns="http://www.w3.org/2000/svg">
<path d="M13.2644 8.36133H10.8145V18.2529H13.2644V8.36133Z" fill="#737D8C"/>
<path d="M8.36453 15.7837H0.658203L9.13071 0.9375L11.2511 2.17168L4.89891 13.3063H8.36453V15.7837Z" fill="#737D8C"/>
<path d="M27.9391 15.7832H15.707V18.2607H27.9391V15.7832Z" fill="#737D8C"/>
<path d="M27.0297 6.37873C27.0297 4.87429 26.4239 3.51398 25.4528 2.53203C24.4817 1.55009 23.1275 0.9375 21.6486 0.9375C20.1697 0.9375 18.8156 1.55009 17.8445 2.53203C16.8734 3.51398 16.2676 4.87429 16.2676 6.37873H18.7176C18.7176 5.55895 19.0472 4.82023 19.5817 4.27971C20.1163 3.73919 20.8468 3.40587 21.6575 3.40587C22.4683 3.40587 23.1988 3.73919 23.7334 4.27971C24.2679 4.82023 24.5975 5.55895 24.5975 6.37873C24.5975 6.79313 24.5263 7.1805 24.3213 7.57689C24.0897 8.02732 23.5908 8.60387 23.0919 9.06332L18.4325 13.3064H22.0852L24.6866 10.9371C25.5241 10.1804 26.2368 9.27052 26.5397 8.62189C26.8871 7.88318 27.0297 7.19852 27.0297 6.37873Z" fill="#737D8C"/>
<path d="M36.7414 8.10553C34.4428 8.10553 32.5808 9.98833 32.5808 12.3125C32.5808 14.6368 34.4517 16.5196 36.7414 16.5196C39.0399 16.5196 40.9019 14.6368 40.9019 12.3125C40.9019 9.98833 39.0399 8.10553 36.7414 8.10553ZM40.8306 16.7808C40.4119 17.2222 39.913 17.6096 39.3606 17.8798C38.5677 18.2762 37.6679 18.4924 36.7503 18.4924C33.3738 18.4924 30.6387 15.7268 30.6387 12.3035C30.6387 8.88027 33.3738 6.12365 36.7503 6.12365C37.6679 6.12365 38.5677 6.33985 39.3606 6.73623C39.9219 7.0155 40.4208 7.39386 40.8395 7.84429V2.41211H42.7995V18.2402H40.8395L40.8306 16.7808Z" fill="#737D8C"/>
<path d="M56.731 12.3108C56.731 15.7251 53.9959 18.4907 50.6194 18.4907C47.2429 18.4907 44.5078 15.7251 44.5078 12.3108C44.5078 8.89651 47.2429 6.13086 50.6194 6.13086C53.9959 6.13086 56.731 8.89651 56.731 12.3108ZM50.6105 8.10375C48.312 8.10375 46.45 9.98656 46.45 12.3108C46.45 14.635 48.312 16.5178 50.6105 16.5178C52.909 16.5178 54.771 14.635 54.771 12.3108C54.771 9.98656 52.909 8.10375 50.6105 8.10375Z" fill="#737D8C"/>
<path d="M65.6612 8.35855H61.9907V18.25H60.0396V8.35855H57.0996V6.37665H60.0396V2.42188H61.9907V6.37665H65.6612V8.35855Z" fill="#737D8C"/>
</svg>
